<svg id="Слой_1" data-name="Слой 1" xmlns="http://www.w3.org/2000/svg" viewBox="0 0 498.51 265.37"><path d="M79.93,185.86l-5.54-16.71H33.24L27.7,185.86H0L37.67,79.51H70l37.66,106.35Zm-39.1-39.5h26l-13-39.05Z"/><path d="M142.44,162.46H182v23.4H117.12V79.51h25.32Z"/><path d="M236.5,162.46h.9q13.14,0,21.29-8.13t8.15-21.65q0-13.52-8.15-21.65T237.4,102.9h-.9a134,134,0,0,0,0,59.56Z"/><path d="M365.83,0A132.72,132.72,0,0,0,244.09,79.86a51.4,51.4,0,0,1,31.69,14.92q15.44,15.25,15.43,37.9t-15.43,37.91a51.34,51.34,0,0,1-31.69,14.91A132.69,132.69,0,1,0,365.83,0Zm9.27,185.86H305.46V79.51H374.3V102.9H330.78v17.63h39.57v23.09H330.78v18.84H375.1Zm82.77-6.61Q446.47,188,428.12,188q-17,0-28.25-7.07A38.8,38.8,0,0,1,383.8,161.7l21.84-12.15q6.64,14.73,23.27,14.73,15,0,15-8.66,0-4.69-4.82-7.36T421,142.1a82.77,82.77,0,0,1-12.18-4.1,51.59,51.59,0,0,1-10.21-6,24.3,24.3,0,0,1-7.6-9.34,30.39,30.39,0,0,1-2.61-12.92q0-14.73,11-23.55t26.19-8.81a46.51,46.51,0,0,1,24.06,6.15,42.94,42.94,0,0,1,16.46,17.85l-21.37,12a23.76,23.76,0,0,0-7.43-9.19q-4.44-3.12-11.72-3.12-5.68,0-8.78,2.36a7,7,0,0,0-3.09,5.69q0,4,3.88,6.84t16.07,6.38q6.64,2,10.28,3.19a74.67,74.67,0,0,1,9.26,4,30.4,30.4,0,0,1,8.55,5.92A29.9,29.9,0,0,1,467,143.7a28,28,0,0,1,2.3,11.62Q469.27,170.52,457.87,179.25Z"/><path d="M236.5,162.46H218.41V102.9H236.5a131.46,131.46,0,0,1,7.59-23,63.58,63.58,0,0,0-6.69-.35H193.09V185.86H237.4a63.55,63.55,0,0,0,6.69-.36A131.46,131.46,0,0,1,236.5,162.46Z"/></svg>