<svg width="111" height="34" viewBox="0 0 111 34" fill="none" xmlns="http://www.w3.org/2000/svg">
<g clip-path="url(#clip0_1133_91163)">
<g clip-path="url(#clip1_1133_91163)">
<path fill-rule="evenodd" clip-rule="evenodd" d="M36.0311 21.0506C36.0197 20.9965 36.0086 20.9422 35.9976 20.8877H31.8841C31.8702 20.9422 31.856 20.9965 31.8416 21.0506H25.4396L23.2328 27.9861C23.1127 28.3764 22.9927 28.7517 22.8726 29.112C22.7825 29.4423 22.7074 29.7575 22.6474 30.0578C22.5873 30.358 22.5573 30.6432 22.5573 30.9135C22.5573 31.3938 22.6924 31.7691 22.9626 32.0393C23.2328 32.2795 23.6982 32.3996 24.3587 32.3996H27.5562V32.6871H16.8827V32.6593C16.4866 32.6778 16.0832 32.6871 15.6724 32.6871H0V32.2367H2.38689C2.74718 32.2367 3.04741 32.1316 3.2876 31.9215C3.55782 31.6813 3.76798 31.381 3.9181 31.0207C4.06822 30.6605 4.14328 30.2551 4.14328 29.8048V3.41389C4.14328 2.84344 4.05321 2.39308 3.87307 2.06282C3.69292 1.70253 3.43772 1.43232 3.10746 1.25218C2.80722 1.07203 2.44694 0.98196 2.0266 0.98196H0V0.531604H15.6724C19.1552 0.531604 22.1575 1.08704 24.6795 2.19792C26.7417 3.08171 28.4125 4.3469 29.6918 5.99349L31.4292 0.531604H38.2296L39.7537 4.88528C40.797 3.79585 42.0338 2.87298 43.4642 2.11668C46.0763 0.705559 49.3038 0 53.1469 0C55.849 0 58.1008 0.240191 59.9022 0.720572C61.7037 1.20095 63.0547 1.84646 63.9554 2.6571C64.8862 3.46775 65.3516 4.36846 65.3516 5.35924C65.3516 6.47012 64.7811 7.47592 63.6402 8.37663C62.5293 9.24732 60.7729 9.68267 58.371 9.68267C58.371 7.31079 58.1609 5.46433 57.7405 4.14328C57.3202 2.79221 56.7197 1.84646 55.9391 1.30603C55.1585 0.735582 54.1977 0.450357 53.0568 0.450357C51.1353 0.450357 49.5741 1.0058 48.3731 2.11668C47.2022 3.22756 46.3465 4.96893 45.8061 7.34081C45.2957 9.68267 45.0405 12.7301 45.0405 16.4831C45.0405 17.84 45.0747 19.1056 45.1431 20.2801L48.2726 29.2193C48.5428 29.9399 48.858 30.5254 49.2183 30.9757C49.5786 31.396 49.9839 31.7113 50.4343 31.9215C50.9147 32.1316 51.4251 32.2367 51.9655 32.2367H52.0556V32.495C52.5418 32.5689 53.0557 32.6058 53.5972 32.6058C53.9275 32.6058 54.2728 32.5908 54.6331 32.5608C55.0234 32.5308 55.4287 32.4857 55.849 32.4257V21.0317C55.849 20.2811 55.759 19.6656 55.5788 19.1852C55.4287 18.7048 55.1435 18.3445 54.7231 18.1043C54.3328 17.8641 53.7624 17.7441 53.0118 17.7441H52.1561V17.2937H67.6033V17.7441H67.198C66.5675 17.7441 66.0721 17.8641 65.7118 18.1043C65.3816 18.3445 65.1564 18.7198 65.0363 19.2302C64.9162 19.7406 64.8562 20.4012 64.8562 21.2118V30.354C62.9346 31.2547 60.9981 31.9303 59.0466 32.3806C57.125 32.831 55.0984 33.0562 52.9667 33.0562C51.3192 33.0562 49.7894 32.9331 48.3773 32.6871H35.7977V32.3996H35.7978H37.5992C38.2898 32.3996 38.7701 32.2795 39.0404 32.0393C39.1204 31.9593 39.1844 31.8057 39.2349 31.6292C39.3754 31.3982 39.4456 31.1203 39.4456 30.7956C39.4456 30.5854 39.4156 30.3752 39.3555 30.1651C39.3255 29.9249 39.2805 29.6847 39.2204 29.4445C39.1604 29.1743 39.0853 28.9041 38.9952 28.6339L38.4015 26.7429C38.3049 26.6052 38.2106 26.4654 38.1188 26.3236L36.5634 21.0506H36.0311ZM35.6281 17.9965C35.6262 17.9663 35.6245 17.9361 35.6227 17.9059L34.9523 15.7988L31.8148 5.59544C31.5519 4.66171 31.3033 3.79942 31.069 3.00857C30.9362 3.48659 30.7916 3.99986 30.6354 4.54836L25.5751 20.6001H36.4287L35.6281 17.9965ZM19.4554 30.5704C18.2244 31.6813 16.6031 32.2367 14.5916 32.2367H13.1054V0.98196H14.6366C16.6482 0.98196 18.2545 1.47735 19.4554 2.46814C20.6864 3.4289 21.5721 4.99013 22.1125 7.15185C22.683 9.28354 22.9682 12.1058 22.9682 15.6186C22.9682 19.6117 22.683 22.8243 22.1125 25.2562C21.5721 27.6881 20.6864 29.4595 19.4554 30.5704Z" fill="#161515"/>
<path d="M81.3225 4.93881C81.3225 5.83138 81.1552 6.5789 80.8204 7.18139C80.4932 7.78387 80.0209 8.2376 79.4035 8.54256C78.7861 8.84752 78.0386 9 77.1609 9H74.9406V1.03381H77.3952C78.1985 1.03381 78.894 1.18257 79.4816 1.4801C80.0692 1.77762 80.5229 2.21647 80.8428 2.79664C81.1626 3.36937 81.3225 4.08343 81.3225 4.93881ZM80.2626 4.97228C80.2626 4.26566 80.1436 3.68549 79.9056 3.23176C79.675 2.77804 79.3328 2.44333 78.8791 2.22762C78.4328 2.00448 77.8898 1.89291 77.2502 1.89291H75.9448V8.1409H77.027C78.1055 8.1409 78.9126 7.87685 79.4481 7.34874C79.9911 6.8132 80.2626 6.02105 80.2626 4.97228ZM83.9385 3.01978V9H82.9567V3.01978H83.9385ZM83.4588 0.777196C83.6075 0.777196 83.7377 0.829262 83.8493 0.933396C83.9683 1.03009 84.0278 1.18629 84.0278 1.402C84.0278 1.61026 83.9683 1.76646 83.8493 1.87059C83.7377 1.97473 83.6075 2.02679 83.4588 2.02679C83.2951 2.02679 83.1575 1.97473 83.0459 1.87059C82.9344 1.76646 82.8786 1.61026 82.8786 1.402C82.8786 1.18629 82.9344 1.03009 83.0459 0.933396C83.1575 0.829262 83.2951 0.777196 83.4588 0.777196ZM87.953 2.90821C88.3472 2.90821 88.7005 2.98259 89.0129 3.13135C89.3328 3.28011 89.6042 3.50697 89.8274 3.81193H89.8832L90.0171 3.01978H90.7981V9.10041C90.7981 9.66571 90.7014 10.138 90.508 10.5174C90.3146 10.9041 90.0208 11.1942 89.6266 11.3876C89.2323 11.581 88.7303 11.6777 88.1203 11.6777C87.6889 11.6777 87.291 11.6442 86.9265 11.5773C86.5695 11.5178 86.2497 11.4248 85.967 11.2984V10.3946C86.1604 10.4913 86.3724 10.5732 86.603 10.6401C86.8336 10.7145 87.0827 10.7703 87.3505 10.8075C87.6183 10.8446 87.8935 10.8632 88.1761 10.8632C88.6894 10.8632 89.091 10.7108 89.3811 10.4058C89.6786 10.1083 89.8274 9.69918 89.8274 9.17851V8.94421C89.8274 8.85496 89.8311 8.72851 89.8385 8.56487C89.846 8.3938 89.8534 8.27479 89.8609 8.20784H89.8162C89.608 8.51281 89.3476 8.73967 89.0352 8.88843C88.7303 9.03719 88.3732 9.11157 87.9641 9.11157C87.1906 9.11157 86.5844 8.84008 86.1455 8.2971C85.7141 7.75412 85.4984 6.99544 85.4984 6.02105C85.4984 5.38137 85.5951 4.83095 85.7885 4.36979C85.9893 3.90119 86.272 3.54044 86.6364 3.28755C87.0009 3.03466 87.4398 2.90821 87.953 2.90821ZM88.0869 3.73384C87.7522 3.73384 87.4658 3.82309 87.2278 4.00161C86.9972 4.18012 86.8187 4.44045 86.6922 4.78261C86.5732 5.12476 86.5137 5.54129 86.5137 6.0322C86.5137 6.76857 86.6476 7.33387 86.9154 7.72809C87.1906 8.11487 87.5885 8.30826 88.1092 8.30826C88.4142 8.30826 88.6745 8.27107 88.8902 8.19669C89.1059 8.11487 89.2844 7.99214 89.4257 7.8285C89.5671 7.65743 89.6712 7.44172 89.7381 7.18139C89.8051 6.92105 89.8385 6.61237 89.8385 6.25535V6.02105C89.8385 5.47807 89.7753 5.03922 89.6489 4.70451C89.5299 4.36979 89.3402 4.12433 89.0799 3.96813C88.8195 3.81193 88.4885 3.73384 88.0869 3.73384ZM93.6792 3.01978V9H92.6974V3.01978H93.6792ZM93.1995 0.777196C93.3482 0.777196 93.4784 0.829262 93.59 0.933396C93.709 1.03009 93.7685 1.18629 93.7685 1.402C93.7685 1.61026 93.709 1.76646 93.59 1.87059C93.4784 1.97473 93.3482 2.02679 93.1995 2.02679C93.0358 2.02679 92.8982 1.97473 92.7866 1.87059C92.6751 1.76646 92.6193 1.61026 92.6193 1.402C92.6193 1.18629 92.6751 1.03009 92.7866 0.933396C92.8982 0.829262 93.0358 0.777196 93.1995 0.777196ZM97.571 8.30826C97.7197 8.30826 97.8722 8.2971 98.0284 8.27479C98.1846 8.24503 98.311 8.21528 98.4077 8.18553V8.93306C98.3036 8.98512 98.1548 9.02603 97.9615 9.05579C97.7681 9.09298 97.5821 9.11157 97.4036 9.11157C97.0912 9.11157 96.8011 9.0595 96.5333 8.95537C96.273 8.8438 96.061 8.65413 95.8974 8.38636C95.7337 8.11859 95.6519 7.74296 95.6519 7.25949V3.77846H94.804V3.30986L95.6631 2.91936L96.0536 1.64745H96.6338V3.01978H98.3631V3.77846H96.6338V7.23717C96.6338 7.60164 96.7193 7.87313 96.8904 8.05164C97.0689 8.22272 97.2957 8.30826 97.571 8.30826ZM101.87 2.91936C102.599 2.91936 103.138 3.07928 103.488 3.39912C103.837 3.71896 104.012 4.22847 104.012 4.92765V9H103.298L103.109 8.15206H103.064C102.893 8.36776 102.714 8.55 102.528 8.69876C102.35 8.84008 102.142 8.94421 101.904 9.01116C101.673 9.0781 101.39 9.11157 101.056 9.11157C100.699 9.11157 100.375 9.04835 100.085 8.9219C99.8023 8.79545 99.5792 8.60206 99.4155 8.34173C99.2519 8.07396 99.1701 7.73924 99.1701 7.33759C99.1701 6.74254 99.4044 6.2851 99.873 5.96526C100.342 5.63799 101.063 5.45947 102.037 5.42972L103.053 5.39625V5.03922C103.053 4.54087 102.945 4.195 102.729 4.00161C102.514 3.80822 102.209 3.71152 101.814 3.71152C101.502 3.71152 101.204 3.75987 100.922 3.85656C100.639 3.94582 100.375 4.04995 100.13 4.16896L99.8284 3.43259C100.089 3.29127 100.397 3.17226 100.754 3.07556C101.111 2.97143 101.483 2.91936 101.87 2.91936ZM102.16 6.1103C101.416 6.14006 100.899 6.25907 100.609 6.46733C100.327 6.6756 100.185 6.9694 100.185 7.34874C100.185 7.68346 100.286 7.92892 100.487 8.08512C100.695 8.24132 100.959 8.31942 101.279 8.31942C101.785 8.31942 102.205 8.18181 102.54 7.9066C102.874 7.62395 103.042 7.19255 103.042 6.61237V6.07683L102.16 6.1103ZM106.841 9H105.859V0.520582H106.841V9ZM79.939 20L78.9795 17.5343H75.8221L74.8737 20H73.8584L76.9712 12.0003H77.875L80.9766 20H79.939ZM77.7857 14.2318C77.7634 14.1723 77.7262 14.0644 77.6741 13.9082C77.6221 13.752 77.57 13.5921 77.5179 13.4285C77.4733 13.2574 77.4361 13.1272 77.4064 13.038C77.3692 13.1867 77.3283 13.3392 77.2836 13.4954C77.2464 13.6442 77.2055 13.7818 77.1609 13.9082C77.1237 14.0347 77.0902 14.1425 77.0605 14.2318L76.1568 16.6417H78.6783L77.7857 14.2318ZM84.7218 13.9082C84.8334 13.9082 84.9524 13.9156 85.0788 13.9305C85.2127 13.938 85.328 13.9528 85.4247 13.9752L85.302 14.8789C85.2053 14.8566 85.0974 14.838 84.9784 14.8231C84.8668 14.8082 84.759 14.8008 84.6548 14.8008C84.4243 14.8008 84.2048 14.8491 83.9966 14.9458C83.7883 15.0425 83.6023 15.1801 83.4387 15.3586C83.2751 15.5297 83.1449 15.738 83.0482 15.9834C82.959 16.2289 82.9143 16.5041 82.9143 16.8091V20H81.9325V14.0198H82.7358L82.8474 15.1132H82.892C83.0185 14.89 83.1709 14.6892 83.3495 14.5107C83.528 14.3247 83.7325 14.1797 83.9631 14.0756C84.1937 13.964 84.4466 13.9082 84.7218 13.9082ZM88.5385 19.3083C88.6872 19.3083 88.8397 19.2971 88.9959 19.2748C89.1521 19.245 89.2786 19.2153 89.3753 19.1855V19.9331C89.2711 19.9851 89.1224 20.026 88.929 20.0558C88.7356 20.093 88.5496 20.1116 88.3711 20.1116C88.0587 20.1116 87.7686 20.0595 87.5009 19.9554C87.2405 19.8438 87.0285 19.6541 86.8649 19.3864C86.7013 19.1186 86.6195 18.743 86.6195 18.2595V14.7785H85.7715V14.3099L86.6306 13.9194L87.0211 12.6475H87.6013V14.0198H89.3306V14.7785H87.6013V18.2372C87.6013 18.6016 87.6868 18.8731 87.8579 19.0516C88.0364 19.2227 88.2633 19.3083 88.5385 19.3083ZM78.3993 26.7938H81.1552V30.6988C80.7238 30.8401 80.2886 30.9442 79.8498 31.0112C79.4109 31.0781 78.9126 31.1116 78.3547 31.1116C77.5291 31.1116 76.8336 30.9479 76.2683 30.6207C75.703 30.2859 75.2716 29.8136 74.9741 29.2037C74.684 28.5863 74.539 27.8574 74.539 27.0169C74.539 26.1838 74.7026 25.4623 75.0299 24.8524C75.3572 24.2425 75.8258 23.7702 76.4357 23.4355C77.0531 23.0933 77.7969 22.9222 78.6671 22.9222C79.1134 22.9222 79.5337 22.9631 79.9279 23.045C80.3295 23.1268 80.7014 23.2421 81.0436 23.3908L80.6642 24.2611C80.3816 24.1346 80.0618 24.0268 79.7047 23.9375C79.3551 23.8483 78.9907 23.8037 78.6113 23.8037C77.9791 23.8037 77.4361 23.9338 76.9824 24.1942C76.5287 24.4545 76.1828 24.8264 75.9448 25.3099C75.7068 25.7859 75.5878 26.3549 75.5878 27.0169C75.5878 27.6491 75.6882 28.2107 75.889 28.7016C76.0973 29.1851 76.4208 29.5644 76.8597 29.8397C77.2985 30.1074 77.875 30.2413 78.589 30.2413C78.827 30.2413 79.0353 30.2339 79.2138 30.219C79.3998 30.1967 79.5671 30.1707 79.7159 30.1409C79.8721 30.1111 80.0171 30.0814 80.151 30.0516V27.6863H78.3993V26.7938ZM85.1889 24.9194C85.9178 24.9194 86.4571 25.0793 86.8067 25.3991C87.1563 25.719 87.3311 26.2285 87.3311 26.9276V31H86.617L86.4273 30.1521H86.3827C86.2116 30.3678 86.0331 30.55 85.8472 30.6988C85.6687 30.8401 85.4604 30.9442 85.2224 31.0112C84.9918 31.0781 84.7091 31.1116 84.3744 31.1116C84.0174 31.1116 83.6938 31.0483 83.4038 30.9219C83.1211 30.7955 82.898 30.6021 82.7343 30.3417C82.5707 30.074 82.4889 29.7392 82.4889 29.3376C82.4889 28.7425 82.7232 28.2851 83.1918 27.9653C83.6604 27.638 84.3819 27.4595 85.3563 27.4297L86.3716 27.3962V27.0392C86.3716 26.5409 86.2637 26.195 86.048 26.0016C85.8323 25.8082 85.5273 25.7115 85.1331 25.7115C84.8207 25.7115 84.5232 25.7599 84.2405 25.8566C83.9579 25.9458 83.6938 26.05 83.4484 26.169L83.1471 25.4326C83.4075 25.2913 83.7162 25.1723 84.0732 25.0756C84.4302 24.9714 84.8021 24.9194 85.1889 24.9194ZM85.479 28.1103C84.7352 28.1401 84.2182 28.2591 83.9281 28.4673C83.6455 28.6756 83.5042 28.9694 83.5042 29.3487C83.5042 29.6835 83.6046 29.9289 83.8054 30.0851C84.0137 30.2413 84.2777 30.3194 84.5976 30.3194C85.1034 30.3194 85.5236 30.1818 85.8583 29.9066C86.193 29.624 86.3604 29.1925 86.3604 28.6124V28.0768L85.479 28.1103ZM90.1599 31H89.1781V22.5206H90.1599V31ZM93.0364 31H92.0545V22.5206H93.0364V31ZM97.2405 24.9082C97.7537 24.9082 98.1926 25.0198 98.5571 25.2429C98.929 25.4661 99.2116 25.7822 99.405 26.1913C99.6058 26.5929 99.7062 27.0653 99.7062 27.6082V28.1996H95.6116C95.6265 28.8764 95.7975 29.3934 96.1248 29.7504C96.4595 30.1 96.9244 30.2748 97.5194 30.2748C97.8988 30.2748 98.2335 30.2413 98.5236 30.1744C98.8211 30.1 99.1261 29.9959 99.4385 29.862V30.7211C99.1335 30.855 98.8323 30.9517 98.5347 31.0112C98.2372 31.0781 97.8839 31.1116 97.4748 31.1116C96.9095 31.1116 96.4074 30.9963 95.9686 30.7657C95.5372 30.5351 95.1988 30.193 94.9533 29.7392C94.7153 29.2781 94.5963 28.7165 94.5963 28.0545C94.5963 27.4 94.7041 26.8384 94.9198 26.3698C95.143 25.9012 95.4517 25.5404 95.8459 25.2876C96.2475 25.0347 96.7124 24.9082 97.2405 24.9082ZM97.2294 25.7115C96.7608 25.7115 96.3889 25.864 96.1136 26.169C95.8459 26.4665 95.686 26.883 95.6339 27.4186H98.6798C98.6798 27.0764 98.6277 26.7789 98.5236 26.526C98.4195 26.2731 98.2595 26.076 98.0438 25.9347C97.8356 25.7859 97.5641 25.7115 97.2294 25.7115ZM104.018 24.9082C104.13 24.9082 104.249 24.9156 104.375 24.9305C104.509 24.938 104.624 24.9528 104.721 24.9752L104.598 25.8789C104.501 25.8566 104.394 25.838 104.275 25.8231C104.163 25.8082 104.055 25.8008 103.951 25.8008C103.72 25.8008 103.501 25.8491 103.293 25.9458C103.084 26.0425 102.899 26.1801 102.735 26.3586C102.571 26.5297 102.441 26.738 102.344 26.9834C102.255 27.2289 102.21 27.5041 102.21 27.8091V31H101.229V25.0198H102.032L102.144 26.1132H102.188C102.315 25.89 102.467 25.6892 102.646 25.5107C102.824 25.3247 103.029 25.1797 103.259 25.0756C103.49 24.964 103.743 24.9082 104.018 24.9082ZM104.9 25.0198H105.949L107.243 28.4227C107.318 28.6235 107.385 28.8169 107.444 29.0029C107.511 29.1888 107.571 29.3711 107.623 29.5496C107.675 29.7206 107.716 29.888 107.745 30.0516H107.79C107.835 29.8657 107.905 29.624 108.002 29.3264C108.099 29.0215 108.199 28.7165 108.303 28.4115L109.519 25.0198H110.579L108.002 31.8256C107.861 32.1975 107.693 32.5211 107.5 32.7963C107.314 33.0789 107.083 33.2946 106.808 33.4434C106.54 33.5996 106.213 33.6777 105.826 33.6777C105.648 33.6777 105.492 33.6666 105.358 33.6442C105.224 33.6294 105.109 33.6108 105.012 33.5885V32.8075C105.094 32.8223 105.19 32.8372 105.302 32.8521C105.421 32.867 105.544 32.8744 105.67 32.8744C105.901 32.8744 106.098 32.8298 106.261 32.7405C106.433 32.6587 106.578 32.536 106.697 32.3723C106.816 32.2161 106.916 32.0302 106.998 31.8145L107.31 31.0223L104.9 25.0198Z" fill="#161515"/>
</g>
</g>
<defs>
<clipPath id="clip0_1133_91163">
<rect width="110.858" height="33.0562" fill="white"/>
</clipPath>
<clipPath id="clip1_1133_91163">
<rect width="110.858" height="33.0562" fill="white"/>
</clipPath>
</defs>
</svg>
