<svg width="86" height="69" viewBox="0 0 86 69" fill="none" xmlns="http://www.w3.org/2000/svg">
<g clip-path="url(#clip0_13_1660)">
<path d="M42.9072 33.5127C39.0145 33.5082 35.2825 31.9599 32.5299 29.2073C29.7774 26.4548 28.229 22.7228 28.2246 18.8301C28.2246 10.945 34.6009 6.81934 40.9006 6.81934C44.1312 6.81934 47.1441 7.87348 49.3744 9.78792C51.923 11.9752 53.2703 15.1017 53.2703 18.8301C53.241 21.5591 52.1363 24.1664 50.1962 26.0858C48.256 28.0053 45.637 29.0818 42.9078 29.0818C40.1786 29.0818 37.5596 28.0053 35.6194 26.0858C33.6793 24.1664 32.5746 21.5591 32.5453 18.8301H34.699C34.7251 20.99 35.6014 23.0526 37.138 24.5708C38.6746 26.089 40.7477 26.9403 42.9078 26.9403C45.0679 26.9403 47.1409 26.089 48.6776 24.5708C50.2142 23.0526 51.0905 20.99 51.1166 18.8301C51.1166 15.749 50.0289 13.1885 47.9721 11.4224C46.1306 9.84296 43.6191 8.97309 40.9006 8.97309C35.8321 8.97309 30.3784 12.0577 30.3784 18.8301C30.4106 22.1319 31.7449 25.2875 34.0911 27.6109C36.4373 29.9343 39.6058 31.2377 42.9078 31.2377C46.2098 31.2377 49.3783 29.9343 51.7245 27.6109C54.0707 25.2875 55.405 22.1319 55.4372 18.8301H57.591C57.5865 22.723 56.038 26.4552 53.2852 29.2078C50.5324 31.9604 46.8001 33.5085 42.9072 33.5127Z" fill="url(#paint0_linear_13_1660)"/>
<path d="M53.9153 28.5362C56.0526 26.1222 57.3322 23.0695 57.5551 19.853L55.2817 20.7935C55.0208 22.4308 54.4378 24.0001 53.5664 25.4105C52.6949 26.821 51.5525 28.0447 50.205 29.0107C48.8575 29.9767 47.3319 30.6658 45.7163 31.0383C44.1007 31.4107 42.4273 31.4591 40.793 31.1806C47.338 32.6595 51.399 31.0071 53.9153 28.5362Z" fill="#042304"/>
<path d="M30.2031 18.4722C30.3039 17.6868 30.4683 16.9109 30.6949 16.1522C30.9435 15.1446 31.3645 14.1876 31.9393 13.3236C34.9761 8.32447 40.8462 7.26435 43.4307 7.0382C42.5954 6.8895 41.7486 6.81463 40.9001 6.81445C38.1074 6.81445 35.2991 7.6257 33.0377 9.21588C30.5968 12.0086 28.7051 16.1557 28.7051 16.1557C28.7051 16.1557 28.7302 17.3678 30.2031 18.4722Z" fill="#042304"/>
<path d="M40.5459 26.6897C38.8581 26.1807 37.3786 25.1426 36.3257 23.7287C35.2729 22.3147 34.7024 20.5998 34.6984 18.8369C33.959 18.9566 33.3691 20.5061 32.9922 21.845C33.4134 23.2244 34.1185 24.5005 35.0622 25.5913C37.5139 27.1468 41.3691 29.127 44.8737 29.0038C46.876 28.6158 48.7192 27.6451 50.1719 26.2135C47.7789 28.439 43.8423 28.3074 40.5459 26.6897Z" fill="#042304"/>
<path d="M46.7812 17.5148L48.6633 17.9659C48.4784 16.7253 47.8965 15.578 47.0049 14.6958L43.4297 13.668L46.7812 17.5148Z" fill="#00F000"/>
<path d="M43.4295 13.6693L43.3098 13.0232C43.177 13.0136 43.043 13.0088 42.9066 13.0088C41.9093 13.0077 40.9285 13.2636 40.0589 13.7518L38.8887 18.1945L43.4295 13.6693Z" fill="#66FF78"/>
<path d="M38.8887 18.1947L42.1552 21.8405L44.8043 18.0403L43.4295 13.6694L38.8887 18.1947Z" fill="#00FF00"/>
<path d="M46.334 18.0463L48.4375 20.6571C48.7204 19.7918 48.7983 18.8726 48.6648 17.9721L46.7827 17.521L46.334 18.0463Z" fill="#00BC00"/>
<path d="M43.4297 13.6694L44.8045 18.0403H46.3337L46.7824 17.5151L43.4297 13.6694Z" fill="#00D400"/>
<path d="M40.0581 13.752C39.1564 14.2582 38.4057 14.9954 37.8834 15.8879C37.361 16.7804 37.0857 17.7959 37.0859 18.83C37.0859 18.897 37.0859 18.9628 37.0859 19.0298L38.8807 18.1923L40.0581 13.752Z" fill="#00FF4A"/>
<path d="M42.1553 21.8402L41.4219 22.8896L43.2526 24.201L48.4371 20.6509L46.3336 18.04H44.8045L42.1553 21.8402Z" fill="#00C800"/>
<path d="M43.7856 24.5839C44.8481 24.421 45.8449 23.9674 46.6657 23.2733C47.4865 22.5792 48.0994 21.6716 48.4365 20.6509L43.252 24.201L43.7856 24.5839Z" fill="#006800"/>
<path d="M43.2523 24.201L41.4216 22.8849L38.1562 22.1885C38.6937 22.9481 39.4056 23.5677 40.2322 23.9952C41.0588 24.4226 41.9759 24.6454 42.9065 24.6449C43.2008 24.6449 43.4948 24.6229 43.7859 24.5791L43.2523 24.1962" fill="#007600"/>
<path d="M42.1551 21.8402L38.8885 18.1943L37.0938 19.0319C37.1307 20.1683 37.5015 21.2686 38.1599 22.1955L41.4252 22.8919L42.1551 21.8402Z" fill="#00B200"/>
<path d="M43.3105 13.021L43.4302 13.6671L44.1948 13.8873L45.0036 13.3979C44.4614 13.1878 43.8907 13.0608 43.3105 13.021Z" fill="#00DC00"/>
<path d="M45.1059 13.4382L45.0042 13.3999L44.1953 13.8893L47.006 14.6957C46.4615 14.1556 45.8158 13.7283 45.1059 13.4382Z" fill="#00FF00"/>
<path d="M44.8039 18.0463C43.9172 19.2428 42.9923 20.547 42.1344 21.8225C41.1054 20.5853 40.0321 19.3888 38.9145 18.2329C38.9199 18.2282 38.9237 18.2219 38.9253 18.215L38.9421 18.154C40.4473 16.7046 41.9366 15.2396 43.4099 13.7591C43.7377 14.7953 44.1039 15.9296 44.4437 16.9634L44.8027 18.0511L44.4772 16.9527C44.1613 15.9225 43.8275 14.7846 43.4937 13.7591C44.257 14.6876 45.1209 15.6855 45.9082 16.5937L46.7291 17.5258L46.2995 18.0236C46.2995 18.0236 46.2995 18.0236 46.2995 18.0307C45.9202 18.0044 45.2717 18.0487 44.805 18.0511C45.3052 18.0654 45.8046 18.0754 46.3031 18.081C47.0019 18.9533 47.7078 19.8171 48.4377 20.6619C47.7736 19.7777 47.0856 18.9114 46.3904 18.0523L46.7973 17.5737C47.4183 17.7172 48.0405 17.8548 48.665 17.9817C48.354 17.8955 48.0421 17.8122 47.7294 17.7316C47.4207 17.6526 47.1132 17.5701 46.8033 17.4923C45.7443 16.2515 44.5861 14.9257 43.4913 13.7388C43.4879 13.7306 43.4851 13.7222 43.4829 13.7137C43.7593 13.7998 44.0345 13.8872 44.3121 13.9673C45.2047 14.2318 46.0997 14.483 47.0055 14.6996C46.1009 14.3957 45.1867 14.1241 44.2678 13.8716C44.5408 13.7594 44.7904 13.5971 45.0037 13.393C44.7247 13.5012 44.4683 13.6602 44.2475 13.862L43.4637 13.6514C43.4641 13.6471 43.4641 13.6427 43.4637 13.6383C43.4598 13.6373 43.4557 13.6373 43.4518 13.6383C43.4071 13.4341 43.3612 13.2303 43.3142 13.0269C43.3417 13.2327 43.3728 13.4373 43.4051 13.6431C42.6429 14.3933 41.8927 15.1531 41.1317 15.9093C40.3986 16.6503 39.6688 17.3946 38.9421 18.142L39.2233 17.0986C39.5032 16.0218 39.8119 14.8336 40.0608 13.7555C39.642 15.1746 39.2256 16.7301 38.8559 18.1659C38.333 18.416 37.5948 18.7726 37.0898 19.0274C37.6199 18.8061 38.3725 18.4639 38.905 18.227C38.9082 18.2257 38.9111 18.2236 38.9134 18.221C39.9424 19.4582 41.0156 20.6547 42.1332 21.8106C41.8939 22.1599 41.6666 22.5081 41.444 22.8491L41.4308 22.8408C40.36 22.611 39.234 22.3789 38.1559 22.1863C39.2185 22.4507 40.3408 22.6972 41.4129 22.9257C42.1176 23.4402 43.0043 24.054 43.7856 24.5769L43.2675 24.1845C44.969 23.0908 46.8021 21.8345 48.4365 20.6439C46.7362 21.7376 44.902 22.9927 43.2675 24.1833C42.6692 23.731 42.059 23.2847 41.4452 22.8503C42.5783 21.3355 43.7689 19.6269 44.8039 18.0463Z" fill="white"/>
<g opacity="0.2">
<path d="M56.8718 32.7109L55.6489 31.488C58.992 28.1235 60.8684 23.573 60.8684 18.83C60.8684 14.0869 58.992 9.53647 55.6489 6.17192L56.8718 4.94787C57.0456 5.09997 57.2717 5.17855 57.5024 5.16702C57.7331 5.15549 57.9503 5.05476 58.1081 4.88609C58.2658 4.71742 58.3519 4.49403 58.3481 4.2631C58.3442 4.03216 58.2508 3.81175 58.0875 3.64843C57.9241 3.48511 57.7037 3.39166 57.4728 3.38782C57.2419 3.38397 57.0185 3.47004 56.8498 3.62783C56.6811 3.78563 56.5804 4.0028 56.5689 4.23348C56.5573 4.46416 56.6359 4.69029 56.788 4.86412L55.5221 6.12885C55.511 6.14023 55.5049 6.15547 55.5049 6.17132C55.5049 6.18718 55.511 6.20241 55.5221 6.2138C57.1767 7.8597 58.4899 9.81619 59.3864 11.971C60.2829 14.1257 60.745 16.4363 60.7461 18.7702H59.1739C59.1698 16.7694 58.7949 14.7868 58.0683 12.9227C58.229 12.8404 58.352 12.6996 58.4121 12.5294C58.4722 12.3591 58.4648 12.1723 58.3914 12.0074C58.3882 12.0001 58.3837 11.9936 58.378 11.9881C58.3724 11.9826 58.3657 11.9783 58.3583 11.9754C58.351 11.9725 58.3432 11.9711 58.3353 11.9712C58.3274 11.9714 58.3196 11.9731 58.3124 11.9763C58.298 11.9828 58.2867 11.9947 58.2809 12.0095C58.275 12.0242 58.2752 12.0406 58.2813 12.0552C58.3132 12.1263 58.3305 12.203 58.3324 12.2809C58.3342 12.3588 58.3205 12.4362 58.292 12.5087C58.2481 12.6167 58.1735 12.7095 58.0775 12.7756C57.9815 12.8418 57.8682 12.8785 57.7517 12.8812C57.6351 12.8838 57.5203 12.8524 57.4214 12.7907C57.3225 12.729 57.2437 12.6397 57.1948 12.5339C57.1923 12.5258 57.1881 12.5184 57.1825 12.5121C57.177 12.5059 57.1701 12.5008 57.1625 12.4973C57.1548 12.4939 57.1465 12.492 57.1381 12.492C57.1297 12.4919 57.1214 12.4937 57.1137 12.497C57.106 12.5004 57.0991 12.5054 57.0934 12.5116C57.0878 12.5178 57.0835 12.5252 57.0809 12.5332C57.0783 12.5412 57.0774 12.5496 57.0783 12.558C57.0791 12.5663 57.0817 12.5744 57.0859 12.5817C57.1422 12.7081 57.2338 12.8156 57.3497 12.8911C57.4656 12.9667 57.6009 13.0072 57.7393 13.0077C57.814 13.0074 57.8882 12.9957 57.9594 12.973C58.8983 15.3915 59.2415 18.0004 58.96 20.5794C58.6784 23.1584 57.7804 25.6319 56.3417 27.7908C56.189 27.7028 56.0092 27.674 55.8367 27.7099C55.6641 27.7459 55.5108 27.8441 55.406 27.9858C55.4014 27.9922 55.3981 27.9994 55.3962 28.007C55.3944 28.0147 55.394 28.0226 55.3953 28.0304C55.3977 28.0461 55.4063 28.0602 55.4192 28.0696C55.432 28.0789 55.4481 28.0828 55.4638 28.0803C55.4795 28.0779 55.4936 28.0693 55.5029 28.0564C55.544 27.9819 55.6004 27.9169 55.6685 27.8659C55.7366 27.8149 55.8148 27.779 55.8978 27.7607C55.9809 27.7423 56.0669 27.7418 56.1502 27.7593C56.2334 27.7768 56.312 27.8119 56.3806 27.8622C56.4493 27.9124 56.5064 27.9768 56.5482 28.0509C56.59 28.125 56.6155 28.2071 56.623 28.2919C56.6306 28.3766 56.6199 28.462 56.5918 28.5423C56.5637 28.6226 56.5189 28.696 56.4602 28.7576C56.4535 28.7665 56.4494 28.777 56.4484 28.7881C56.4474 28.7992 56.4495 28.8103 56.4545 28.8202C56.4595 28.8302 56.4671 28.8385 56.4766 28.8444C56.486 28.8502 56.4969 28.8533 56.508 28.8533C56.5175 28.8534 56.5267 28.8511 56.5351 28.8467C56.5434 28.8423 56.5506 28.836 56.5559 28.8282C56.664 28.6825 56.7118 28.5008 56.6895 28.3208C56.6673 28.1408 56.5766 27.9763 56.4362 27.8614C58.2145 25.2059 59.1667 22.0833 59.1727 18.8874H60.7461C60.7456 21.2218 60.284 23.533 59.3877 25.6884C58.4914 27.8438 57.1781 29.8009 55.5233 31.4474C55.5123 31.4585 55.5062 31.4736 55.5062 31.4892C55.5062 31.5049 55.5123 31.5199 55.5233 31.5311L56.7892 32.797C56.6396 32.9709 56.5633 33.196 56.5766 33.425C56.5898 33.6539 56.6915 33.8688 56.8601 34.0242C57.0288 34.1796 57.2512 34.2634 57.4805 34.2579C57.7098 34.2524 57.928 34.1581 58.089 33.9947C58.25 33.8314 58.3413 33.6119 58.3435 33.3826C58.3458 33.1533 58.2588 32.932 58.101 32.7656C57.9432 32.5992 57.7269 32.5005 57.4978 32.4906C57.2687 32.4806 57.0446 32.56 56.873 32.7121L56.8718 32.7109ZM56.9125 3.73459C57.0201 3.62711 57.1572 3.55394 57.3064 3.52435C57.4556 3.49475 57.6102 3.51005 57.7508 3.56832C57.8913 3.62658 58.0114 3.7252 58.0959 3.85169C58.1804 3.97819 58.2254 4.1269 58.2254 4.27901C58.2254 4.43113 58.1804 4.57984 58.0959 4.70634C58.0114 4.83283 57.8913 4.93145 57.7508 4.98971C57.6102 5.04797 57.4556 5.06328 57.3064 5.03368C57.1572 5.00408 57.0201 4.93092 56.9125 4.82343C56.8407 4.75206 56.7838 4.66722 56.745 4.57379C56.7062 4.48037 56.6862 4.38019 56.6862 4.27901C56.6862 4.17784 56.7062 4.07766 56.745 3.98424C56.7838 3.89081 56.8407 3.80597 56.9125 3.73459ZM58.0013 33.9242C57.8936 34.0317 57.7566 34.1048 57.6073 34.1344C57.4581 34.164 57.3035 34.1487 57.163 34.0905C57.0225 34.0322 56.9024 33.9336 56.8179 33.8071C56.7334 33.6806 56.6883 33.5319 56.6883 33.3798C56.6883 33.2276 56.7334 33.0789 56.8179 32.9524C56.9024 32.8259 57.0225 32.7273 57.163 32.6691C57.3035 32.6108 57.4581 32.5955 57.6073 32.6251C57.7566 32.6547 57.8936 32.7278 58.0013 32.8353C58.1455 32.9798 58.2265 33.1756 58.2265 33.3798C58.2265 33.5839 58.1455 33.7797 58.0013 33.9242Z" fill="#939598"/>
<path d="M55.6533 28.9346C55.6631 28.922 55.6676 28.9061 55.6657 28.8903C55.6638 28.8745 55.6557 28.8601 55.6431 28.8502C55.6306 28.8404 55.6147 28.8359 55.5989 28.8378C55.583 28.8397 55.5686 28.8479 55.5588 28.8604C54.0735 30.7262 52.1972 32.2435 50.0619 33.3055C49.9708 33.1406 49.8193 33.0174 49.6394 32.9616C49.4594 32.9058 49.2649 32.9218 49.0964 33.0061C48.928 33.0905 48.7987 33.2367 48.7355 33.4142C48.6724 33.5918 48.6804 33.7868 48.7578 33.9586C48.8352 34.1303 48.976 34.2655 49.1508 34.3359C49.3256 34.4062 49.5208 34.4062 49.6956 34.3359C49.8704 34.2656 50.0112 34.1305 50.0886 33.9587C50.1661 33.7869 50.1741 33.5919 50.111 33.4144C52.264 32.3447 54.156 30.8155 55.6533 28.9346ZM49.9949 33.8762C49.9453 34.0056 49.8523 34.1137 49.7319 34.1822C49.6114 34.2506 49.4709 34.2751 49.3344 34.2515C49.1978 34.2279 49.0738 34.1576 48.9833 34.0527C48.8928 33.9478 48.8415 33.8147 48.8382 33.6762C48.835 33.5376 48.8799 33.4023 48.9653 33.2932C49.0507 33.1841 49.1713 33.108 49.3066 33.078C49.4418 33.0479 49.5833 33.0657 49.7069 33.1284C49.8305 33.1911 49.9285 33.2947 49.9842 33.4216C50.016 33.4929 50.0333 33.5698 50.0351 33.6478C50.037 33.7259 50.0233 33.8035 49.9949 33.8762Z" fill="#939598"/>
<path d="M44.4623 1.05552C48.3416 1.38256 52.0046 2.98082 54.8828 5.60232C54.8939 5.61243 54.9085 5.61798 54.9235 5.61787C54.9387 5.61778 54.9533 5.61178 54.9642 5.60112L55.7659 4.82218C55.7715 4.81662 55.7759 4.81 55.7789 4.80271C55.782 4.79542 55.7836 4.7876 55.7836 4.77971C55.7836 4.77181 55.782 4.76399 55.7789 4.7567C55.7759 4.74941 55.7715 4.74279 55.7659 4.73723C55.7545 4.72619 55.7392 4.72002 55.7234 4.72002C55.7075 4.72002 55.6923 4.72619 55.6809 4.73723L54.9199 5.47668C52.0288 2.85996 48.3586 1.26469 44.473 0.935862C44.4651 0.93504 44.4572 0.935829 44.4496 0.938181C44.442 0.940533 44.435 0.944399 44.4289 0.949545C44.4229 0.954691 44.418 0.96101 44.4144 0.968119C44.4109 0.975228 44.4089 0.982979 44.4084 0.990903C44.4071 1.00659 44.412 1.02217 44.4221 1.03427C44.4322 1.04636 44.4466 1.054 44.4623 1.05552Z" fill="#939598"/>
<path d="M41.353 36.6029C37.4736 36.2761 33.8106 34.6778 30.9325 32.0561C30.9212 32.0458 30.9065 32.04 30.8912 32.04C30.8759 32.04 30.8612 32.0458 30.8499 32.0561L30.0494 32.8351C30.038 32.8462 30.0315 32.8614 30.0313 32.8773C30.031 32.8932 30.0371 32.9086 30.0483 32.92C30.0594 32.9314 30.0745 32.938 30.0905 32.9382C30.1064 32.9384 30.1218 32.9323 30.1332 32.9212L30.8942 32.1818C33.7857 34.7984 37.4564 36.3933 41.3423 36.7214H41.3483C41.363 36.7214 41.3772 36.7159 41.3881 36.7059C41.399 36.696 41.4057 36.6822 41.4069 36.6675C41.4082 36.6518 41.4033 36.6363 41.3932 36.6242C41.3832 36.6121 41.3687 36.6044 41.353 36.6029Z" fill="#939598"/>
<path d="M38.1505 3.85423C38.2563 3.91443 38.3758 3.94617 38.4975 3.94636C38.5635 3.94612 38.6291 3.93686 38.6925 3.91884C38.862 3.86988 39.0075 3.76024 39.1013 3.61083C39.1951 3.46142 39.2306 3.28271 39.2011 3.10879C41.3564 2.60271 43.5926 2.54442 45.7713 2.93753C47.9501 3.33063 50.025 4.16676 51.8675 5.39416C51.8048 5.5028 51.7716 5.62599 51.7713 5.75145C51.771 5.8769 51.8036 6.00024 51.8658 6.10918C51.928 6.21813 52.0177 6.30886 52.1259 6.37235C52.2341 6.43584 52.3571 6.46986 52.4825 6.47103C52.5194 6.47117 52.5562 6.46837 52.5926 6.46266C52.7534 6.43708 52.9005 6.35678 53.009 6.23532C54.8597 7.72389 56.3626 9.59918 57.4122 11.7298C57.4171 11.7398 57.4248 11.7483 57.4343 11.7542C57.4438 11.7602 57.4548 11.7633 57.466 11.7633C57.4747 11.7656 57.4838 11.7656 57.4924 11.7633C57.4995 11.7598 57.5058 11.755 57.511 11.7491C57.5162 11.7432 57.5202 11.7364 57.5228 11.7289C57.5253 11.7215 57.5264 11.7136 57.5259 11.7057C57.5254 11.6979 57.5234 11.6902 57.5199 11.6831C56.4622 9.53668 54.9479 7.64751 53.0832 6.14797C53.1785 5.99577 53.2127 5.81313 53.1788 5.63676C53.145 5.46039 53.0456 5.30338 52.9007 5.19728C52.7558 5.09119 52.5761 5.04388 52.3978 5.06486C52.2194 5.08585 52.0556 5.17357 51.9393 5.3104C50.083 4.07025 47.9918 3.22462 45.7952 2.82594C43.5987 2.42726 41.3436 2.48403 39.1699 2.99273C39.1326 2.88168 39.0687 2.78145 38.9838 2.70078C38.8989 2.62011 38.7955 2.56145 38.6827 2.52992C38.5698 2.49838 38.451 2.49494 38.3366 2.51988C38.2221 2.54482 38.1155 2.59738 38.026 2.67299C37.9365 2.7486 37.8669 2.84496 37.8233 2.95366C37.7796 3.06235 37.7632 3.18008 37.7754 3.29658C37.7877 3.41308 37.8283 3.5248 37.8937 3.622C37.9591 3.7192 38.0472 3.79893 38.1505 3.85423ZM52.0051 5.40253C52.0746 5.30633 52.1711 5.23296 52.2824 5.19176C52.3937 5.15056 52.5147 5.1434 52.6301 5.17118C52.7455 5.19896 52.85 5.26043 52.9304 5.34777C53.0107 5.43511 53.0633 5.54437 53.0814 5.66166C53.0995 5.77895 53.0822 5.89897 53.0319 6.00646C52.9816 6.11394 52.9005 6.20403 52.7988 6.26528C52.6972 6.32652 52.5796 6.35614 52.461 6.35038C52.3425 6.34462 52.2284 6.30374 52.1331 6.23292C52.07 6.18696 52.0166 6.12897 51.9759 6.06228C51.9353 5.9956 51.9083 5.92154 51.8964 5.84436C51.8845 5.76718 51.888 5.68842 51.9066 5.61259C51.9253 5.53676 51.9587 5.46538 52.0051 5.40253ZM38.3372 2.66129C38.3897 2.64613 38.4441 2.63847 38.4987 2.63856C38.6279 2.63915 38.7534 2.68154 38.8565 2.7594C38.9596 2.83726 39.0347 2.9464 39.0706 3.0705C39.1039 3.18445 39.1025 3.30571 39.0666 3.41885C39.0307 3.53199 38.962 3.63191 38.8691 3.70588C38.7763 3.77985 38.6636 3.82454 38.5453 3.83426C38.427 3.84397 38.3085 3.81828 38.2048 3.76045C38.1012 3.70262 38.017 3.61527 37.9632 3.5095C37.9093 3.40373 37.8881 3.28433 37.9023 3.16648C37.9165 3.04864 37.9654 2.93768 38.0429 2.84772C38.1203 2.75776 38.2227 2.69286 38.3372 2.66129Z" fill="#939598"/>
<path d="M47.1215 33.7398C46.9518 33.7888 46.806 33.8986 46.7122 34.0483C46.6184 34.198 46.5831 34.377 46.613 34.5511C45.397 34.8351 44.1524 34.9785 42.9037 34.9783C39.7136 34.9831 36.5943 34.0384 33.9429 32.2645C34.0306 32.1119 34.0592 31.9325 34.0232 31.7602C33.9873 31.5879 33.8893 31.4348 33.7479 31.33C33.6727 31.2741 33.587 31.2337 33.496 31.2113C33.405 31.1889 33.3104 31.1849 33.2178 31.1996C33.0573 31.226 32.9105 31.3062 32.8014 31.427C30.9502 29.9382 29.4466 28.063 28.3958 25.9325C28.3925 25.9255 28.3878 25.9192 28.382 25.914C28.3762 25.9088 28.3695 25.9048 28.3621 25.9022C28.3548 25.8996 28.347 25.8986 28.3392 25.899C28.3314 25.8995 28.3238 25.9015 28.3168 25.905C28.3098 25.9084 28.3034 25.9132 28.2982 25.9191C28.293 25.925 28.289 25.9319 28.2864 25.9394C28.2839 25.9468 28.2828 25.9547 28.2833 25.9625C28.2838 25.9704 28.2859 25.9781 28.2893 25.9852C29.347 28.1316 30.8613 30.0208 32.7261 31.5203C32.6586 31.6282 32.621 31.7521 32.6172 31.8793C32.6134 32.0065 32.6435 32.1325 32.7043 32.2443C32.7652 32.356 32.8547 32.4496 32.9636 32.5154C33.0726 32.5812 33.1971 32.6168 33.3243 32.6187C33.3612 32.6182 33.3979 32.6154 33.4344 32.6103C33.6054 32.5833 33.7604 32.4943 33.8699 32.3603C36.5419 34.15 39.6865 35.1031 42.9025 35.0979C44.161 35.0981 45.4152 34.9532 46.6405 34.666C46.6867 34.7985 46.7707 34.9145 46.8822 34.9998C46.9936 35.085 47.1276 35.1358 47.2676 35.1457C47.4076 35.1556 47.5474 35.1243 47.6698 35.0556C47.7922 34.9869 47.8917 34.8838 47.9561 34.7592C48.0206 34.6345 48.047 34.4937 48.0323 34.3541C48.0175 34.2146 47.9622 34.0824 47.8732 33.9739C47.7841 33.8655 47.6652 33.7855 47.5312 33.7439C47.3972 33.7023 47.2539 33.7009 47.1191 33.7398H47.1215ZM33.8089 32.2562C33.7635 32.3199 33.7058 32.3739 33.6393 32.415C33.5727 32.4561 33.4986 32.4835 33.4212 32.4955C33.304 32.5146 33.1838 32.4985 33.0758 32.4491C32.9678 32.3997 32.877 32.3193 32.8149 32.2181C32.7527 32.1169 32.7221 31.9995 32.7269 31.8809C32.7317 31.7622 32.7717 31.6477 32.8418 31.5518C32.9119 31.456 33.0089 31.3832 33.1206 31.3427C33.2322 31.3022 33.3533 31.2958 33.4686 31.3243C33.5838 31.3529 33.688 31.4151 33.7678 31.5031C33.8476 31.591 33.8994 31.7007 33.9166 31.8182C33.9286 31.8947 33.9253 31.9728 33.9068 32.048C33.8883 32.1232 33.8551 32.194 33.8089 32.2562ZM47.4768 34.9974C47.3986 35.0311 47.3141 35.0477 47.229 35.046C47.1439 35.0444 47.0601 35.0247 46.9832 34.9881C46.9063 34.9515 46.8381 34.8989 46.7832 34.8338C46.7282 34.7688 46.6878 34.6927 46.6646 34.6108C46.6415 34.5289 46.636 34.4429 46.6487 34.3587C46.6614 34.2745 46.6919 34.194 46.7382 34.1226C46.7845 34.0511 46.8455 33.9903 46.9172 33.9444C46.9889 33.8984 47.0695 33.8682 47.1538 33.8559C47.2063 33.8407 47.2607 33.8331 47.3153 33.8332C47.4544 33.8402 47.5866 33.8955 47.6893 33.9896C47.792 34.0836 47.8586 34.2105 47.8777 34.3485C47.8969 34.4864 47.8673 34.6266 47.7941 34.7451C47.7209 34.8636 47.6087 34.9528 47.4768 34.9974Z" fill="#939598"/>
<path d="M30.1593 8.72043C30.1496 8.73283 30.1451 8.7486 30.1469 8.76429C30.1487 8.77998 30.1566 8.79432 30.1689 8.80419C30.1792 8.8131 30.1924 8.8178 30.206 8.81735C30.2152 8.81749 30.2243 8.81552 30.2326 8.81157C30.2409 8.80763 30.2482 8.80183 30.2539 8.79462C31.7408 6.92735 33.6198 5.40948 35.7579 4.34832C35.8448 4.50045 35.985 4.61498 36.1514 4.66978C36.3178 4.72458 36.4986 4.71578 36.6589 4.64506C36.8312 4.56779 36.9661 4.42576 37.0344 4.24973C37.1027 4.0737 37.0989 3.87785 37.0238 3.70459C36.9651 3.5777 36.8707 3.47071 36.752 3.39676C36.6334 3.3228 36.4957 3.28509 36.3559 3.28827C36.2162 3.29145 36.0804 3.33537 35.9652 3.41464C35.85 3.49391 35.7605 3.60508 35.7076 3.73451C35.6461 3.89595 35.6461 4.07441 35.7076 4.23585C33.552 5.30616 31.6579 6.83713 30.1593 8.72043ZM35.8129 3.78237C35.857 3.67444 35.9317 3.58176 36.0278 3.5157C36.1239 3.44965 36.2371 3.41311 36.3537 3.41056C36.4703 3.40802 36.585 3.43959 36.6839 3.50139C36.7827 3.5632 36.8614 3.65254 36.9102 3.75844C36.9517 3.84859 36.9701 3.94765 36.9638 4.04669C36.9575 4.14574 36.9266 4.24167 36.874 4.32582C36.8214 4.40998 36.7487 4.47972 36.6624 4.52878C36.5761 4.57783 36.479 4.60464 36.3798 4.60681C36.2806 4.60897 36.1824 4.58641 36.094 4.54117C36.0057 4.49593 35.93 4.42942 35.8738 4.34764C35.8175 4.26586 35.7825 4.17137 35.7719 4.07269C35.7613 3.97401 35.7754 3.87424 35.8129 3.78237Z" fill="#939598"/>
<path d="M30.2904 31.5309C30.2961 31.5256 30.3007 31.5191 30.3038 31.5119C30.3069 31.5047 30.3085 31.4969 30.3085 31.4891C30.3085 31.4812 30.3069 31.4735 30.3038 31.4662C30.3007 31.459 30.2961 31.4526 30.2904 31.4472C28.6357 29.8016 27.3224 27.8453 26.4259 25.6907C25.5294 23.5361 25.0674 21.2257 25.0664 18.892H26.6398C26.6436 20.8915 27.0181 22.8729 27.7442 24.7359C27.5849 24.8206 27.4633 24.9621 27.4037 25.1324C27.344 25.3027 27.3507 25.4892 27.4223 25.6548C27.4272 25.6653 27.435 25.6741 27.4447 25.6803C27.4545 25.6864 27.4658 25.6896 27.4774 25.6895C27.4853 25.6911 27.4934 25.6911 27.5013 25.6895C27.5086 25.6864 27.5151 25.6819 27.5206 25.6762C27.5261 25.6705 27.5304 25.6638 27.5333 25.6565C27.5362 25.6491 27.5376 25.6413 27.5374 25.6334C27.5373 25.6255 27.5356 25.6178 27.5324 25.6105C27.4888 25.5377 27.4612 25.4565 27.4513 25.3722C27.4415 25.2879 27.4497 25.2025 27.4755 25.1216C27.5012 25.0408 27.5438 24.9663 27.6005 24.9032C27.6572 24.84 27.7267 24.7897 27.8044 24.7555C27.8821 24.7213 27.9661 24.704 28.051 24.7047C28.1358 24.7055 28.2195 24.7243 28.2966 24.7599C28.3736 24.7955 28.4422 24.8471 28.4977 24.9112C28.5533 24.9754 28.5946 25.0506 28.6189 25.1319C28.6214 25.1399 28.6256 25.1473 28.6311 25.1536C28.6367 25.1599 28.6436 25.165 28.6512 25.1684C28.6589 25.1719 28.6672 25.1737 28.6756 25.1738C28.684 25.1738 28.6923 25.1721 28.7 25.1687C28.7077 25.1653 28.7146 25.1604 28.7202 25.1542C28.7259 25.1479 28.7302 25.1406 28.7328 25.1326C28.7354 25.1246 28.7363 25.1161 28.7354 25.1078C28.7346 25.0994 28.7319 25.0913 28.7277 25.0841C28.6557 24.9228 28.5269 24.7938 28.3657 24.7216C28.2046 24.6495 28.0225 24.6392 27.8543 24.6928C26.9138 22.2732 26.5698 19.6627 26.8514 17.082C27.133 14.5014 28.0319 12.0265 29.472 9.86662C29.6238 9.95581 29.8033 9.98548 29.9757 9.94989C30.1481 9.9143 30.3012 9.81598 30.4053 9.67398C30.41 9.6677 30.4134 9.66054 30.4154 9.65293C30.4173 9.64532 30.4178 9.6374 30.4166 9.62962C30.4155 9.62185 30.4129 9.61436 30.4089 9.6076C30.4049 9.60084 30.3996 9.59494 30.3933 9.59022C30.387 9.58551 30.3799 9.58208 30.3723 9.58013C30.3647 9.57818 30.3567 9.57775 30.349 9.57886C30.3412 9.57997 30.3337 9.5826 30.3269 9.58661C30.3202 9.59061 30.3143 9.5959 30.3096 9.60219C30.2685 9.67673 30.2121 9.74166 30.144 9.79266C30.0759 9.84366 29.9977 9.87954 29.9147 9.89793C29.8316 9.91631 29.7456 9.91677 29.6623 9.89926C29.5791 9.88176 29.5005 9.8467 29.4319 9.79643C29.3632 9.74616 29.3061 9.68183 29.2643 9.60773C29.2225 9.53363 29.197 9.45147 29.1895 9.36672C29.1819 9.28198 29.1926 9.19661 29.2207 9.1163C29.2487 9.036 29.2936 8.96261 29.3523 8.90102C29.3571 8.89473 29.3606 8.88752 29.3626 8.87984C29.3645 8.87216 29.3649 8.86416 29.3637 8.85633C29.3624 8.8485 29.3596 8.84101 29.3554 8.83429C29.3512 8.82758 29.3457 8.82179 29.3392 8.81727C29.3264 8.80825 29.3106 8.80457 29.2952 8.80703C29.2798 8.80949 29.2659 8.81789 29.2566 8.83043C29.1485 8.97609 29.1007 9.15777 29.123 9.33777C29.1452 9.51778 29.2359 9.6823 29.3763 9.79722C27.5981 12.4528 26.646 15.5753 26.6398 18.7712H25.0664C25.0671 16.4371 25.529 14.1262 26.4255 11.9712C27.322 9.81616 28.6354 7.85951 30.2904 6.21362C30.296 6.20806 30.3005 6.20145 30.3035 6.19415C30.3065 6.18686 30.3081 6.17905 30.3081 6.17115C30.3081 6.16325 30.3065 6.15543 30.3035 6.14814C30.3005 6.14085 30.296 6.13423 30.2904 6.12867L29.0257 4.86394C29.1818 4.68825 29.2636 4.45873 29.2536 4.22388C29.2437 3.98903 29.1428 3.76725 28.9724 3.60539C28.8019 3.44354 28.5752 3.35428 28.3402 3.35649C28.1051 3.35869 27.8801 3.45218 27.7127 3.61721C27.5454 3.78224 27.4487 4.00588 27.4431 4.24087C27.4376 4.47586 27.5236 4.70381 27.6831 4.87654C27.8425 5.04927 28.0628 5.15326 28.2975 5.16654C28.5322 5.17982 28.7628 5.10134 28.9407 4.9477L30.1648 6.17175C26.8217 9.53629 24.9453 14.0868 24.9453 18.8298C24.9453 23.5729 26.8217 28.1233 30.1648 31.4879L28.9419 32.7107C28.768 32.5564 28.5409 32.4757 28.3086 32.4856C28.0763 32.4956 27.857 32.5955 27.6969 32.7641C27.5369 32.9328 27.4487 33.1571 27.4509 33.3896C27.4531 33.6221 27.5456 33.8446 27.7088 34.0102C27.8721 34.1758 28.0933 34.2714 28.3258 34.2769C28.5582 34.2825 28.7837 34.1974 28.9546 34.0398C29.1256 33.8821 29.2285 33.6642 29.2418 33.4321C29.255 33.2 29.1775 32.9718 29.0257 32.7957L30.2904 31.5309ZM27.8124 4.82326C27.7049 4.71562 27.6318 4.57853 27.6022 4.42931C27.5726 4.2801 27.5879 4.12547 27.6461 3.98495C27.7044 3.84443 27.803 3.72434 27.9295 3.63985C28.056 3.55536 28.2047 3.51026 28.3568 3.51026C28.5089 3.51026 28.6576 3.55536 28.7841 3.63985C28.9106 3.72434 29.0093 3.84443 29.0675 3.98495C29.1258 4.12547 29.1411 4.2801 29.1115 4.42931C29.0819 4.57853 29.0087 4.71562 28.9012 4.82326C28.7568 4.96749 28.561 5.0485 28.3568 5.0485C28.1527 5.0485 27.9569 4.96749 27.8124 4.82326ZM28.9012 33.924C28.7936 34.0315 28.6565 34.1046 28.5073 34.1342C28.3581 34.1638 28.2035 34.1485 28.0629 34.0903C27.9224 34.032 27.8023 33.9334 27.7178 33.8069C27.6333 33.6804 27.5882 33.5317 27.5882 33.3796C27.5882 33.2275 27.6333 33.0788 27.7178 32.9523C27.8023 32.8258 27.9224 32.7271 28.0629 32.6689C28.2035 32.6106 28.3581 32.5953 28.5073 32.6249C28.6565 32.6545 28.7936 32.7277 28.9012 32.8352C29.0455 32.9796 29.1265 33.1754 29.1265 33.3796C29.1265 33.5837 29.0455 33.7795 28.9012 33.924Z" fill="#939598"/>
</g>
<path d="M22.175 67.697L18.9061 60.2666H17.9297L21.7107 68.8038H22.6009L26.382 60.2666H25.4666L22.175 67.697Z" fill="#25244A"/>
<path d="M30.9549 64.8529H35.3701V64.0835H30.9549V61.0467H35.9073V60.2666H30.0527V68.8038H36.0904V68.0237H30.9549V64.8529Z" fill="#25244A"/>
<path d="M45.7117 65.7496C46.2006 65.5417 46.617 65.1936 46.9082 64.7493C47.1974 64.283 47.3439 63.7423 47.3294 63.1938C47.3457 62.6376 47.1993 62.0887 46.9082 61.6144C46.6169 61.1704 46.2005 60.8227 45.7117 60.6153C45.1208 60.3695 44.4849 60.2509 43.8451 60.2671H40.6504V68.8043H41.5562V66.0966H43.8487C44.0786 66.0972 44.3084 66.084 44.5367 66.0571L46.4835 68.8091H47.4718L45.3851 65.8752C45.4939 65.8381 45.6052 65.7962 45.7117 65.7496ZM43.8212 65.3284H41.5562V61.0472H43.8296C44.6823 61.0472 45.3308 61.2343 45.7751 61.6084C46.2194 61.9825 46.4408 62.511 46.4392 63.1938C46.4392 63.8702 46.2178 64.3947 45.7751 64.7672C45.3324 65.1397 44.6811 65.3268 43.8212 65.3284Z" fill="#25244A"/>
<path d="M56.4027 64.7979C56.0764 64.6263 55.7331 64.4892 55.3784 64.3887C55.0075 64.2834 54.6366 64.1864 54.2621 64.0967C53.9132 64.0144 53.5693 63.9125 53.2319 63.7916C52.9453 63.6944 52.6861 63.5304 52.4757 63.313C52.2779 63.0932 52.1747 62.8043 52.1885 62.5089C52.1856 62.2281 52.2691 61.9532 52.4278 61.7216C52.6144 61.47 52.8701 61.278 53.1637 61.1688C53.5691 61.0186 53.9998 60.9483 54.432 60.9618C54.8343 60.965 55.2344 61.0225 55.6213 61.1329C56.0356 61.2482 56.4286 61.4292 56.7856 61.6689L57.0907 60.951C56.7174 60.7004 56.3055 60.5128 55.8714 60.3958C55.4072 60.2629 54.9268 60.1952 54.444 60.1948C53.7205 60.1948 53.127 60.3025 52.6635 60.5179C52.2441 60.6961 51.886 60.993 51.6333 61.3722C51.4111 61.7196 51.2943 62.124 51.2971 62.5364C51.2786 62.9248 51.3787 63.3096 51.5843 63.6396C51.7778 63.9232 52.0373 64.1556 52.3405 64.3169C52.6665 64.4934 53.0123 64.6308 53.3707 64.7261C53.7452 64.8278 54.1185 64.9235 54.493 65.012C54.8406 65.094 55.1827 65.1979 55.5172 65.3231C55.8003 65.4239 56.0568 65.5876 56.2675 65.8017C56.4645 66.0224 56.5671 66.3115 56.5534 66.607C56.5546 66.8775 56.4709 67.1416 56.3141 67.362C56.1253 67.6128 55.8663 67.8018 55.5699 67.9052C55.1475 68.0535 54.7011 68.1217 54.2537 68.1063C53.7051 68.1089 53.1611 68.0074 52.6504 67.8071C52.2009 67.6447 51.7884 67.3941 51.4371 67.0701L51.0781 67.7653C51.4607 68.1303 51.9215 68.4032 52.4254 68.5633C53.0107 68.7718 53.6277 68.877 54.2489 68.8744C54.9812 68.8744 55.5795 68.7667 56.0437 68.5514C56.4659 68.373 56.8277 68.0768 57.0859 67.6982C57.3101 67.3559 57.4291 66.9553 57.4281 66.546C57.4459 66.163 57.3456 65.7838 57.1409 65.4595C56.9512 65.1832 56.6981 64.9563 56.4027 64.7979Z" fill="#25244A"/>
<path d="M62.751 64.8529H67.165V64.0835H62.751V61.0467H67.7023V60.2666H61.8477V68.8038H67.8853V68.0237H62.751V64.8529Z" fill="#25244A"/>
<path d="M2.74006 49.0735H8.19742V46.958H2.74006V44.4058H8.92013V42.2222H0.0371094V53.9769H9.1379V51.7944H2.74006V49.0735Z" fill="#25244A"/>
<path d="M22.2864 42.2222L17.9574 49.521L13.5542 42.2222H11.3047V53.9769H13.8569V47.0741L17.2993 52.7349H18.5245L21.9861 46.9221L22.0004 53.9769H24.5538L24.5203 42.2222H22.2864Z" fill="#25244A"/>
<path d="M30.0428 49.0735H35.5014V46.958H30.0428V44.4058H36.2229V42.2222H27.3398V53.9769H36.4406V51.7944H30.0428V49.0735Z" fill="#25244A"/>
<path d="M46.416 50.1994C47.1335 49.899 47.7466 49.3938 48.1784 48.7468C48.5924 48.1143 48.7994 47.3613 48.7994 46.4878C48.7994 45.6143 48.5924 44.8529 48.1784 44.2036C47.7475 43.5518 47.1347 43.0409 46.416 42.7343C45.6534 42.3937 44.7464 42.223 43.6951 42.2222H38.6074V53.9769H41.3271V50.7032H43.6951C43.7381 50.7032 43.7788 50.7032 43.8219 50.7032L46.0797 53.9804H49.0184L46.392 50.2114L46.416 50.1994ZM45.4252 47.9906C45.0104 48.3544 44.3835 48.5362 43.5443 48.5362H41.3271V47.7465L42.5332 46.4878L41.3271 45.229V44.4393H43.5443C44.3827 44.4393 45.0096 44.6184 45.4252 44.9766C45.8392 45.3355 46.0462 45.8393 46.0462 46.4878C46.0462 47.1363 45.8392 47.6269 45.4252 47.9906Z" fill="#25244A"/>
<path d="M54.6439 42.2222L49.4043 53.9769H52.1922L53.2392 51.4582H58.6882L59.7315 53.9769H62.5864L57.3301 42.2222H54.6439ZM54.0983 49.3954L55.9696 44.8964L57.829 49.3954H54.0983Z" fill="#25244A"/>
<path d="M66.5334 42.2222H63.8125V53.9769H72.4275V51.7609H66.5334V42.2222Z" fill="#25244A"/>
<path d="M84.9536 44.9932C84.3973 44.1154 83.6065 43.4108 82.6706 42.9591C81.6966 42.4717 80.5715 42.228 79.2952 42.228H73.9551V53.9827H79.2952C80.5715 53.9827 81.6966 53.7394 82.6706 53.2528C83.6088 52.7978 84.3999 52.0879 84.9536 51.2044C85.5024 50.3269 85.7768 49.2939 85.7768 48.1054C85.7768 46.9168 85.5024 45.8794 84.9536 44.9932ZM82.5437 50.0306C82.2292 50.575 81.7626 51.0158 81.2012 51.2989C80.5667 51.6086 79.867 51.7612 79.1612 51.744H76.6748V49.8296L78.3344 48.097L76.6748 46.368V44.4536H79.1612C79.867 44.4364 80.5667 44.589 81.2012 44.8987C81.7617 45.182 82.2281 45.6217 82.5437 46.1646C82.8581 46.7613 83.0224 47.4256 83.0224 48.1C83.0224 48.7744 82.8581 49.4387 82.5437 50.0354V50.0306Z" fill="#25244A"/>
<path d="M19.6307 42.2222H16.2266L17.928 43.853L19.6307 42.2222Z" fill="#25244A"/>
<path d="M44.9136 30.8395C41.683 30.8395 38.6701 29.7854 36.4386 27.871C33.8912 25.6837 32.5439 22.5572 32.5439 18.83C32.5292 17.4598 32.7864 16.1003 33.3005 14.8301C33.8147 13.56 34.5756 12.4044 35.5393 11.4303C36.5031 10.4562 37.6504 9.68284 38.9149 9.15506C40.1795 8.62728 41.5362 8.35553 42.9064 8.35553C44.2767 8.35553 45.6334 8.62728 46.8979 9.15506C48.1625 9.68284 49.3098 10.4562 50.2735 11.4303C51.2372 12.4044 51.9982 13.56 52.5124 14.8301C53.0265 16.1003 53.2837 17.4598 53.269 18.83H51.1152C51.1283 17.7437 50.9257 16.6655 50.519 15.6581C50.1124 14.6507 49.5098 13.734 48.7463 12.9611C47.9827 12.1883 47.0734 11.5747 46.0709 11.1559C45.0685 10.7372 43.9928 10.5215 42.9064 10.5215C41.82 10.5215 40.7444 10.7372 39.742 11.1559C38.7395 11.5747 37.8302 12.1883 37.0666 12.9611C36.303 13.734 35.7005 14.6507 35.2938 15.6581C34.8872 16.6655 34.6845 17.7437 34.6977 18.83C34.6977 25.6382 39.8284 28.6858 44.9136 28.6858C49.9989 28.6858 55.4359 25.6023 55.4359 18.83C55.4521 17.1743 55.1399 15.5318 54.5175 13.9975C53.8951 12.4632 52.9748 11.0674 51.8097 9.89089C50.6446 8.71437 49.2579 7.78044 47.7297 7.14307C46.2016 6.5057 44.5622 6.17753 42.9064 6.17753C41.2507 6.17753 39.6113 6.5057 38.0831 7.14307C36.555 7.78044 35.1683 8.71437 34.0032 9.89089C32.8381 11.0674 31.9178 12.4632 31.2954 13.9975C30.673 15.5318 30.3608 17.1743 30.377 18.83H28.2233C28.2057 16.8906 28.5726 14.967 29.3027 13.1702C30.0327 11.3734 31.1115 9.739 32.4767 8.36142C33.8419 6.98384 35.4665 5.89036 37.2566 5.14412C39.0467 4.39788 40.967 4.01367 42.9064 4.01367C44.8459 4.01367 46.7661 4.39788 48.5563 5.14412C50.3464 5.89036 51.971 6.98384 53.3362 8.36142C54.7014 9.739 55.7802 11.3734 56.5102 13.1702C57.2403 14.967 57.6071 16.8906 57.5896 18.83C57.5896 26.7139 51.2133 30.8395 44.9136 30.8395Z" fill="url(#paint1_linear_13_1660)"/>
</g>
<defs>
<linearGradient id="paint0_linear_13_1660" x1="49.7011" y1="31.8351" x2="34.3652" y2="7.20582" gradientUnits="userSpaceOnUse">
<stop stop-color="#048300"/>
<stop offset="1" stop-color="#5BF300"/>
</linearGradient>
<linearGradient id="paint1_linear_13_1660" x1="51.5795" y1="30.6649" x2="36.2448" y2="6.03434" gradientUnits="userSpaceOnUse">
<stop stop-color="#048300"/>
<stop offset="1" stop-color="#5BF300"/>
</linearGradient>
<clipPath id="clip0_13_1660">
<rect width="85.7396" height="67.9392" fill="white" transform="translate(0.0371094 0.935547)"/>
</clipPath>
</defs>
</svg>
