<svg width="69" height="63" viewBox="0 0 69 63" fill="none" xmlns="http://www.w3.org/2000/svg">
<g clip-path="url(#clip0_2683_192493)">
<path fill-rule="evenodd" clip-rule="evenodd" d="M59.2752 11.7012C50.6347 3.06552 37.0934 1.73025 26.9338 8.51784C16.7742 15.3054 12.8265 28.3242 17.5047 39.6111C22.183 50.8979 34.181 57.313 46.1597 54.9279C58.1383 52.5428 66.774 42.03 66.7691 29.8095C66.7788 23.0171 64.0841 16.5004 59.2752 11.7012ZM41.1669 3.23001C53.8471 3.23001 64.7614 12.185 67.2384 24.6281C69.7106 37.0663 63.0536 49.5191 51.3411 54.3715C39.6236 59.224 26.1114 55.1263 19.0674 44.5796C12.0234 34.033 13.407 19.9837 22.3716 11.0142C27.3499 6.02148 34.1133 3.22033 41.1669 3.23001Z" fill="#393939"/>
<path fill-rule="evenodd" clip-rule="evenodd" d="M38.4107 31.5564H40.8393C41.7924 31.5564 42.4745 31.2371 42.8857 30.6033C43.3453 29.8583 43.563 28.9875 43.505 28.1118V19.4423C43.505 18.2908 43.297 17.4055 42.8857 16.7863C42.4745 16.167 41.7924 15.8574 40.8393 15.8574H38.4107V31.5564ZM36.64 45.1751V14.1689H40.8393C42.4116 14.1689 43.5437 14.6189 44.2355 15.5187C44.9273 16.4186 45.2757 17.7296 45.2757 19.4471V28.1118C45.3337 29.2535 45.0773 30.3856 44.5451 31.3919C44.3371 31.8563 43.9936 32.2434 43.563 32.4998L45.3192 35.0929L45.3676 45.1654H43.5534L43.505 35.1123L42.0488 33.2303H38.4155V45.1606H36.64V45.1751ZM53.8097 31.5661L52.9341 23.3997L52.0681 31.5709L53.8097 31.5661ZM49.1266 39.3358L52.0536 19.8535H53.8194C54.8112 26.4572 55.803 33.061 56.7947 39.6647H54.9031L54.7676 38.7552H54.7725L54.4532 36.4282L54.0178 33.3996H51.831C51.4779 35.9734 51.3134 37.1055 50.965 39.6841H49.0734L49.1266 39.3358ZM26.4707 39.3938V19.8728H32.2181V21.6967H28.3236V31.5661H31.594V33.3561H28.3236V37.8795H32.2181V39.7034H26.4707V39.3938Z" fill="#393939"/>
<path fill-rule="evenodd" clip-rule="evenodd" d="M40.8365 31.8615C41.301 31.8712 41.7606 31.7793 42.1911 31.5954C42.5782 31.4164 42.9071 31.131 43.1345 30.773C43.3619 30.4198 43.5312 30.0376 43.6328 29.6312C43.7538 29.1378 43.807 28.625 43.7973 28.117V19.4426C43.8022 18.9056 43.7489 18.3734 43.6328 17.8509C43.5361 17.4107 43.3667 16.9995 43.1248 16.6173C42.8926 16.2641 42.5685 15.9883 42.1814 15.8142C41.7557 15.6303 41.2961 15.5432 40.8317 15.5529H38.1031V31.8567L40.8365 31.8615ZM38.7127 31.2568H40.8414C41.2187 31.2665 41.5912 31.1987 41.9396 31.0487C42.225 30.9181 42.4669 30.7101 42.6314 30.444C42.8249 30.1489 42.97 29.8199 43.0571 29.4764C43.1635 29.0313 43.2119 28.5717 43.2022 28.1121V19.4426C43.2119 18.954 43.1587 18.4653 43.0571 17.9864C42.9797 17.6187 42.8346 17.2655 42.6314 16.9511C42.462 16.6898 42.2202 16.4866 41.9396 16.3609C41.5912 16.2157 41.2139 16.1431 40.8365 16.1528H38.7078L38.7127 31.2568ZM36.9372 14.4692V44.8707H38.1079V32.9452H42.1863L43.7925 35.0207L43.8409 44.8755H45.06L45.0165 35.19L43.1539 32.4421L43.3716 32.2679C43.4441 32.2147 43.4925 32.176 43.5457 32.1421C43.865 31.9196 44.1215 31.6099 44.2763 31.2471C44.5133 30.8214 44.6875 30.3714 44.7939 29.8973C44.9197 29.3071 44.9778 28.712 44.9681 28.1073V19.4474C44.9778 18.7072 44.8955 17.9719 44.7165 17.251C44.5811 16.6898 44.3343 16.1625 43.9908 15.7029C43.6715 15.2868 43.241 14.9724 42.7475 14.7837C42.1331 14.5612 41.4848 14.4499 40.8317 14.4692H36.9372ZM36.3373 45.1754V13.8693H40.8365C41.5622 13.8548 42.2879 13.9758 42.9749 14.2322C43.5651 14.4596 44.0828 14.8418 44.4698 15.3401C44.8617 15.8674 45.1471 16.4673 45.3019 17.1011C45.4954 17.8703 45.5873 18.6589 45.5728 19.4474V28.1121C45.5825 28.7604 45.5196 29.4039 45.3841 30.0328C45.2632 30.5601 45.0697 31.0681 44.8084 31.5374C44.6198 31.9486 44.3343 32.3066 43.9715 32.5775L45.6164 35.0013L45.6647 45.4657H43.2506L43.1974 35.219L41.896 33.5354H38.7078V45.4706H36.3373V45.1754ZM53.2312 23.371L52.9313 20.5747L51.7363 31.8664H54.1408L53.2312 23.371ZM53.478 31.2713L52.9361 26.2254L52.404 31.2713H53.478ZM52.312 20.1586L49.4238 39.3893H50.7107C50.88 38.1411 51.001 37.2751 51.1219 36.3946C51.2477 35.4754 51.3832 34.5417 51.5428 33.3661L51.5767 33.1097H54.2811L54.8036 36.7381H54.7987L55.118 39.0652L55.1616 39.3748H56.4484L55.0068 29.8102L53.5602 20.1635H52.312V20.1586ZM48.8287 39.2925L51.7944 19.5539H54.073L55.597 29.7135L57.1403 39.965H54.6439L54.4165 38.4556H54.4262L54.1359 36.3414L53.7537 33.6999H52.0895C51.9298 34.8562 51.8186 35.6689 51.7073 36.472C51.5718 37.459 51.4315 38.4314 51.2574 39.7231L51.2187 39.9844H48.7175C48.7465 39.8102 48.8239 39.4425 48.8287 39.2925ZM26.7679 20.1731V39.399H31.9202V38.175H28.0257V33.0516H31.2962V31.8615H28.0257C28.0257 28.3734 28.0257 24.8853 28.0257 21.3923H31.9202V20.1683H26.7679V20.1731ZM26.168 39.3941V19.5732H32.5153V21.997H28.6208V31.2665H31.8912V33.6564H28.6208V37.5799H32.5153V39.9989H26.168V39.3941Z" fill="#393939"/>
<path fill-rule="evenodd" clip-rule="evenodd" d="M18.6958 15.1069C19.9633 15.1069 20.5971 16.6406 19.7021 17.5356C18.8071 18.4306 17.2734 17.7968 17.2734 16.5293C17.2734 15.7455 17.912 15.1069 18.6958 15.1069Z" fill="#393939"/>
<path fill-rule="evenodd" clip-rule="evenodd" d="M56.9282 7.59473C58.1957 7.59473 58.8295 9.12834 57.9345 10.0234C57.0395 10.9232 55.5059 10.2846 55.5059 9.01707C55.5059 8.22849 56.1445 7.59473 56.9282 7.59473Z" fill="#393939"/>
<path fill-rule="evenodd" clip-rule="evenodd" d="M66.5719 34.7012C67.5443 34.7012 68.0281 35.8768 67.3411 36.5638C66.6541 37.2507 65.4785 36.7621 65.4785 35.7945C65.4834 35.1898 65.972 34.7012 66.5719 34.7012Z" fill="#393939"/>
<path fill-rule="evenodd" clip-rule="evenodd" d="M38.3805 54.7593C39.3529 54.7593 39.8367 55.9349 39.1497 56.6219C38.4627 57.3089 37.2871 56.8251 37.2871 55.8526C37.2919 55.2479 37.7806 54.7593 38.3805 54.7593Z" fill="#393939"/>
<path fill-rule="evenodd" clip-rule="evenodd" d="M21.0211 12.1323C21.9935 12.1323 22.4773 13.3079 21.7903 13.9949C21.1033 14.6819 19.9277 14.1933 19.9277 13.2209C19.9277 12.621 20.4164 12.1323 21.0211 12.1323Z" fill="#393939"/>
<path fill-rule="evenodd" clip-rule="evenodd" d="M17.5866 39.9116C18.559 39.9116 19.0477 41.0872 18.3607 41.7742C17.6737 42.4612 16.4981 41.9726 16.4981 41.005C16.4932 40.4003 16.9819 39.9116 17.5866 39.9116Z" fill="#393939"/>
<path fill-rule="evenodd" clip-rule="evenodd" d="M63.6442 15.4561C64.6166 15.4561 65.1004 16.6317 64.4134 17.3186C63.7264 18.0056 62.5508 17.517 62.5508 16.5446C62.5508 15.9447 63.0394 15.4561 63.6442 15.4561Z" fill="#393939"/>
<path fill-rule="evenodd" clip-rule="evenodd" d="M19.8202 5.01101C20.2266 4.71106 23.3277 8.07825 24.8033 9.20064C25.4661 9.58768 26.1337 12.0115 25.5822 12.3404C25.0355 12.6694 23.318 11.9679 22.7859 11.0294C21.649 9.2587 19.4138 5.31096 19.8202 5.01101Z" fill="#393939"/>
<path fill-rule="evenodd" clip-rule="evenodd" d="M61.3987 16.7619C61.0842 16.3797 62.0615 15.0686 63.5758 13.835C65.09 12.5965 66.5753 11.9046 66.8849 12.2868C67.1994 12.669 66.2221 13.9801 64.7078 15.2186C63.1936 16.4523 61.7083 17.1441 61.3987 16.7619Z" fill="#393939"/>
<path fill-rule="evenodd" clip-rule="evenodd" d="M67.9524 60.6127C67.6572 60.8352 58.8281 51.1691 57.7395 50.3563C57.2557 50.0757 56.7429 48.3002 57.1445 48.0583C57.546 47.8116 58.8087 48.3147 59.2054 49.0017C60.0521 50.2934 68.2475 60.3901 67.9524 60.6127Z" fill="#393939"/>
<path fill-rule="evenodd" clip-rule="evenodd" d="M41.2785 4.59438C31.0898 4.59438 21.9075 10.7337 18.0033 20.1483C14.1039 29.558 16.2617 40.3949 23.4653 47.5986C30.6689 54.8022 41.501 56.9551 50.9156 53.0557C60.3302 49.1564 66.4646 39.974 66.4646 29.7854C66.4646 23.1042 63.8086 16.6988 59.0868 11.9722C54.365 7.24556 47.9548 4.59438 41.2785 4.59438ZM24.8054 9.15653C24.8054 9.15653 23.9394 7.30845 25.4875 7.54067C27.0357 7.77289 27.534 7.61324 27.7372 7.02785C27.9355 6.44246 28.5258 5.79419 29.7836 5.86675C31.0463 5.93932 29.9723 3.41877 31.2301 3.29299C32.4928 3.16236 32.6331 4.88466 33.4943 4.71049C34.3506 4.53633 34.0361 3.38007 35.4536 3.3075C36.8663 3.23493 36.6147 4.08157 37.8291 3.87837C39.0434 3.68002 41.98 3.38974 44.2393 3.92191C46.4986 4.45408 47.979 2.48989 49.2514 2.7076C50.5237 2.92047 49.6674 5.02496 50.3109 5.38296C50.9543 5.74097 53.291 -0.340284 53.9635 0.462809C54.6359 1.2659 52.0864 6.00222 52.5315 6.44246C52.9717 6.88755 54.0893 5.5668 54.8924 6.29733C55.6955 7.02785 55.1343 7.90351 55.6519 8.21798C56.1647 8.53244 60.127 11.0143 60.4124 11.9915C60.6979 12.964 61.5009 12.1077 62.246 12.7946C62.991 13.4816 62.4685 14.188 62.5604 14.7346C62.6475 15.2813 65.11 18.9485 65.2261 19.6935C65.3422 20.4385 66.5179 20.9514 67.2 22.127C67.887 23.3026 67.2 24.6185 67.0549 25.1313C66.9146 25.6441 69.0287 26.6165 68.9997 27.5938C68.9707 28.5662 67.5145 28.6823 67.3113 30.6562C67.1081 32.6301 68.3611 32.185 67.8531 33.3461C67.3451 34.5023 66.9629 33.917 66.6485 35.0926C66.334 36.2682 65.2745 39.8434 65.2455 40.1869C65.2165 40.5304 65.3906 42.7607 64.8149 43.3896C64.1183 44.1056 63.2958 44.6765 62.3814 45.078C61.7235 45.3054 60.0641 48.1404 60.0641 48.1404C60.0641 48.1404 58.5788 50.9174 57.7177 51.5753C56.8566 52.2333 55.7438 52.0059 54.9988 52.0349C54.2538 52.064 53.9973 53.8637 53.4555 54.3813C52.9137 54.899 52.4541 53.8395 51.5929 53.9507C50.7366 54.062 50.306 55.1796 49.8464 56.7567C49.6045 57.5888 50.5286 62.4171 50.1028 62.6009C49.7206 62.7702 48.0129 58.3774 47.5 57.7824C46.4115 56.5245 46.1261 55.3779 44.607 55.6343C43.0927 55.8956 42.8895 57.2405 42.2025 57.4389C41.5155 57.6372 41.172 56.2052 40.6302 55.9488C40.0884 55.6924 36.8228 55.4069 36.8228 55.4069C36.8228 55.4069 33.6443 56.7519 32.788 55.9488C31.9268 55.1505 31.9268 54.1201 31.0124 53.8878C30.0981 53.6556 27.0647 60.8157 26.1165 60.4964C25.1731 60.182 28.8934 53.3944 28.5499 52.7654C28.2064 52.1365 26.9776 52.5381 26.2326 53.138C25.4875 53.7379 24.6312 53.3654 25.1731 52.0252C25.7149 50.6803 24.8296 49.5628 24.4861 49.4176C24.1426 49.2773 20.9931 46.4713 20.9931 46.4713C20.9931 46.4713 18.7338 47.0132 18.7048 45.9875C18.6758 44.9571 19.7933 44.7829 19.3047 43.9846C18.8161 43.1815 17.7469 43.9217 17.7033 42.9832C17.6598 42.0446 18.0904 41.5754 17.8485 41.2657C17.6066 40.9561 16.4745 37.9711 16.4745 37.9711C16.4745 37.9711 15.5553 38.0002 14.9554 36.4278C14.3555 34.8555 15.5553 34.6523 15.4392 33.8492C15.3279 33.0461 13.5476 32.9687 14.0943 32.1027C14.641 31.2368 15.1828 31.3287 15.1828 30.5594C15.1828 29.7854 10.8045 28.2663 12.2946 27.0665C13.7798 25.8618 15.5021 26.2634 15.7875 24.662C16.073 23.0607 -1.84664 16.0747 0.15625 15.2717C2.15914 14.4686 16.2423 21.5126 16.9293 20.2547C17.6163 18.9968 15.8166 17.352 16.818 17.2213C17.8146 17.0907 18.1533 17.2455 18.7193 16.4908C19.2805 15.7361 22.8025 10.9853 22.8025 10.9853L24.8054 9.15653Z" fill="#393939"/>
</g>
<defs>
<clipPath id="clip0_2683_192493">
<rect width="69" height="62.216" fill="white" transform="translate(0 0.389648)"/>
</clipPath>
</defs>
</svg>
