<svg width="257" height="128" viewBox="0 0 257 128" fill="none" xmlns="http://www.w3.org/2000/svg">
<path fill-rule="evenodd" clip-rule="evenodd" d="M42.744 74.0785C46.234 75.4246 50.2226 76.0977 54.7097 76.0977C58.3992 76.0977 61.7895 75.5243 64.8806 74.3776C67.9718 73.2309 70.6391 71.6355 72.8827 69.5913C75.1762 67.5472 76.9461 65.1042 78.1925 62.2623C79.439 59.4204 80.0622 56.3293 80.0622 52.9888C80.0622 52.5401 80.0373 51.7175 79.9874 50.5209C79.9874 49.2745 79.9375 48.028 79.8378 46.7816C79.788 45.5352 79.7381 44.6377 79.6883 44.0893L50.7461 49.3335V52.9888L65.1142 55.1343C65.0179 55.9253 64.8154 56.681 64.5067 57.4012C64.058 58.3983 63.4348 59.2709 62.637 60.0187C61.8892 60.7167 60.9668 61.2901 59.87 61.7388C58.823 62.1376 57.6513 62.3371 56.355 62.3371C54.4604 62.3371 52.7154 62.013 51.12 61.3649C49.5246 60.6669 48.1535 59.7196 47.0068 58.523C45.86 57.3264 44.9626 55.9055 44.3145 54.2602C43.6663 52.565 43.3422 50.7452 43.3422 48.8008C43.3422 46.8564 43.6414 45.0615 44.2397 43.4162C44.8878 41.7211 45.7603 40.2752 46.8572 39.0786C47.9541 37.882 49.2503 36.9597 50.7461 36.3115C52.2418 35.6135 53.8871 35.2645 55.6819 35.2645C57.4269 35.2645 58.9975 35.4889 60.3935 35.9376C61.7895 36.3365 63.0608 36.9098 64.2075 37.6577C65.3543 38.3557 66.4262 39.1783 67.4234 40.1256L76.996 29.9547C75.4504 28.3593 73.6057 26.9384 71.4618 25.6919C69.3678 24.3956 66.9996 23.3736 64.3571 22.6257C61.7645 21.8778 58.9476 21.5039 55.9063 21.5039C51.5189 21.5039 47.5303 22.177 43.9405 23.5231C40.4007 24.8693 37.3344 26.7639 34.7419 29.2069C32.1493 31.6499 30.155 34.5416 28.759 37.882C27.4128 41.1726 26.7397 44.8122 26.7397 48.8008C26.7397 52.7395 27.338 56.3791 28.5346 59.7196C29.781 63.06 31.6008 65.9517 33.994 68.3947C36.3871 70.8378 39.3038 72.7323 42.744 74.0785ZM94.3375 73.181C97.8773 74.9261 101.916 75.7986 106.453 75.7986C110.99 75.7986 115.003 74.9261 118.493 73.181C122.033 71.3862 124.8 68.9432 126.795 65.852C128.789 62.7609 129.786 59.221 129.786 55.2324V22.9996H113.857V54.5593C113.857 56.0052 113.533 57.3015 112.884 58.4482C112.236 59.5451 111.364 60.4176 110.267 61.0657C109.17 61.7139 107.899 62.0379 106.453 62.0379C105.107 62.0379 103.885 61.7139 102.788 61.0657C101.741 60.4176 100.919 59.5451 100.32 58.4482C99.7221 57.3015 99.4229 56.0052 99.4229 54.5593V22.9996H83.1196V55.2324C83.1196 59.221 84.1167 62.7609 86.111 65.852C88.1053 68.9432 90.8474 71.3862 94.3375 73.181ZM134.174 75.3498V22.9996H158.704C162.343 22.9996 165.584 23.7226 168.426 25.1684C171.268 26.6143 173.486 28.5837 175.082 31.0765C176.677 33.5694 177.475 36.4362 177.475 39.6769C177.475 43.3165 176.677 46.5074 175.082 49.2495C173.486 51.9917 171.268 54.1355 168.426 55.6811C168.374 55.7084 168.322 55.7353 168.27 55.7621L179.644 75.3498H163.565L155.613 57.9247H152.428L148.048 75.3498H134.174ZM192.122 73.181C195.662 74.9261 199.701 75.7986 204.238 75.7986C208.775 75.7986 212.788 74.9261 216.278 73.181C219.818 71.3862 222.585 68.9432 224.579 65.852C226.574 62.7609 227.571 59.221 227.571 55.2324V22.9996H211.641V54.5593C211.641 56.0052 211.317 57.3015 210.669 58.4482C210.021 59.5451 209.149 60.4176 208.052 61.0657C206.955 61.7139 205.683 62.0379 204.238 62.0379C202.891 62.0379 201.67 61.7139 200.573 61.0657C199.526 60.4176 198.703 59.5451 198.105 58.4482C197.507 57.3015 197.208 56.0052 197.208 54.5593V22.9996H180.904V55.2324C180.904 59.221 181.902 62.7609 183.896 65.852C185.89 68.9432 188.632 71.3862 192.122 73.181ZM154.037 29.2031L154.3 26.0493L154.563 29.2031C155.061 35.1731 159.612 40.0099 165.541 40.8686C159.612 41.7274 155.061 46.5642 154.563 52.5342L154.3 55.688L154.037 52.5342C153.54 46.5642 148.988 41.7274 143.059 40.8686C148.988 40.0099 153.54 35.1731 154.037 29.2031Z" fill="#7126D3"/>
<path d="M38.823 106.337C35.6596 106.337 33.0365 105.295 30.9537 103.213C28.871 101.13 27.8296 98.5657 27.8296 95.5202C27.8296 92.4746 28.871 89.9105 30.9537 87.8277C33.0365 85.745 35.6596 84.7036 38.823 84.7036C41.1612 84.7036 43.293 85.4011 45.2186 86.7962C47.1638 88.1716 48.4213 89.9891 48.9911 92.2487H43.8923C43.4404 91.2859 42.7527 90.5491 41.8292 90.0382C40.9057 89.5077 39.9037 89.2424 38.823 89.2424C36.9367 89.2424 35.4139 89.8417 34.2547 91.0403C33.1151 92.2389 32.5453 93.7321 32.5453 95.5202C32.5453 97.3082 33.1151 98.8015 34.2547 100C35.4139 101.199 36.9367 101.798 38.823 101.798C39.9037 101.798 40.9057 101.542 41.8292 101.032C42.7527 100.501 43.4404 99.7544 43.8923 98.7917H48.9911C48.4213 101.051 47.1638 102.879 45.2186 104.274C43.293 105.649 41.1612 106.337 38.823 106.337Z" fill="#7126D3"/>
<path d="M59.2866 99.9411C60.4852 101.179 61.9293 101.798 63.6191 101.798C65.3089 101.798 66.7432 101.179 67.9222 99.9411C69.1011 98.7032 69.6905 97.2296 69.6905 95.5202C69.6905 93.8107 69.1011 92.3371 67.9222 91.0992C66.7432 89.8614 65.3089 89.2424 63.6191 89.2424C61.9293 89.2424 60.4852 89.8614 59.2866 91.0992C58.1077 92.3371 57.5182 93.8107 57.5182 95.5202C57.5182 97.2296 58.1077 98.7032 59.2866 99.9411ZM71.2526 103.154C69.1502 105.276 66.6057 106.337 63.6191 106.337C60.6325 106.337 58.0782 105.286 55.9562 103.183C53.8538 101.061 52.8026 98.5068 52.8026 95.5202C52.8026 92.5336 53.8538 89.9891 55.9562 87.8867C58.0782 85.7646 60.6325 84.7036 63.6191 84.7036C66.6057 84.7036 69.1502 85.7646 71.2526 87.8867C73.3746 90.0087 74.4357 92.5532 74.4357 95.5202C74.4357 98.4871 73.3746 101.032 71.2526 103.154Z" fill="#7126D3"/>
<path d="M79.7323 105.983V85.0573H84.4185V101.503H93.0835V105.983H79.7323Z" fill="#7126D3"/>
<path d="M98.0573 105.983V85.0573H102.743V101.503H111.408V105.983H98.0573Z" fill="#7126D3"/>
<path d="M116.382 105.983V85.0573H129.645V89.5372H121.068V93.2802H127.877V97.7601H121.068V101.503H129.645V105.983H116.382Z" fill="#7126D3"/>
<path d="M144.609 106.337C141.445 106.337 138.822 105.295 136.74 103.213C134.657 101.13 133.615 98.5657 133.615 95.5202C133.615 92.4746 134.657 89.9105 136.74 87.8277C138.822 85.745 141.445 84.7036 144.609 84.7036C146.947 84.7036 149.079 85.4011 151.004 86.7962C152.95 88.1716 154.207 89.9891 154.777 92.2487H149.678C149.226 91.2859 148.538 90.5491 147.615 90.0382C146.692 89.5077 145.689 89.2424 144.609 89.2424C142.723 89.2424 141.2 89.8417 140.04 91.0403C138.901 92.2389 138.331 93.7321 138.331 95.5202C138.331 97.3082 138.901 98.8015 140.04 100C141.2 101.199 142.723 101.798 144.609 101.798C145.689 101.798 146.692 101.542 147.615 101.032C148.538 100.501 149.226 99.7544 149.678 98.7917H154.777C154.207 101.051 152.95 102.879 151.004 104.274C149.079 105.649 146.947 106.337 144.609 106.337Z" fill="#7126D3"/>
<path d="M163.252 105.983V89.5372H157.917V85.0573H173.361V89.5372H167.968V105.983H163.252Z" fill="#7126D3"/>
<path d="M178.294 105.983V85.0573H182.98V105.983H178.294Z" fill="#7126D3"/>
<path d="M195.848 105.983L187.271 85.0573H192.37L197.94 98.998L203.481 85.0573H208.639L200.062 105.983H195.848Z" fill="#7126D3"/>
<path d="M212.929 105.983V85.0573H226.192V89.5372H217.615V93.2802H224.423V97.7601H217.615V101.503H226.192V105.983H212.929Z" fill="#7126D3"/>
</svg>
