<svg width="763" height="399" viewBox="0 0 763 399" fill="none" xmlns="http://www.w3.org/2000/svg">
<path d="M72.8247 222.106H59.2558L108.647 169.853H131.262V229.147H108.647V188.753L115.431 191.625L79.6997 229.147H52.5618L16.7399 191.718L23.6148 188.846V229.147H1V169.853H23.6148L72.8247 222.106Z" fill="black"/>
<path d="M166.548 204.132V211.544H235.297V229.147H143.933V169.853H235.116V187.456H166.548V194.868H222.633V204.132H166.548Z" fill="black"/>
<path d="M243.406 169.853H337.484V187.456H243.406V169.853ZM279.138 186.251H301.753V229.147H279.138V186.251Z" fill="black"/>
<path d="M349.581 220.16V206.263H411.455V220.16H349.581ZM329.318 229.147L368.125 169.853H393.273L432.442 229.147H407.565L374.005 176.06H387.483L354.194 229.147H329.318Z" fill="black"/>
<path d="M530.423 210.988L522.011 215.899V169.853H544.625V229.147H522.011L453.895 188.753L462.307 183.75V229.147H439.693V169.853H462.307L530.423 210.988Z" fill="black"/>
<path d="M664.466 204.41C664.165 210.278 662.084 215.188 658.225 219.141C654.365 223.094 648.666 226.059 641.128 228.035C633.65 230.012 624.182 231 612.724 231C603.979 231 596.139 230.506 589.204 229.518C582.269 228.591 576.359 226.985 571.474 224.7C566.589 222.353 562.85 219.172 560.257 215.157C557.664 211.143 556.367 206.078 556.367 199.963C556.367 193.849 557.664 188.753 560.257 184.676C562.85 180.538 566.589 177.265 571.474 174.856C576.359 172.385 582.269 170.625 589.204 169.575C596.139 168.525 603.979 168 612.724 168C624.182 168 633.68 169.081 641.218 171.243C648.757 173.343 654.456 176.462 658.315 180.6C662.175 184.738 664.255 189.772 664.557 195.701H641.037C640.314 193.725 638.987 191.996 637.057 190.513C635.127 188.969 632.233 187.765 628.373 186.9C624.514 186.035 619.297 185.603 612.724 185.603C605.005 185.603 598.733 186.097 593.908 187.085C589.084 188.012 585.556 189.525 583.324 191.625C581.093 193.725 579.977 196.504 579.977 199.963C579.977 203.113 581.093 205.676 583.324 207.653C585.556 209.629 589.084 211.081 593.908 212.007C598.733 212.934 605.005 213.397 612.724 213.397C619.297 213.397 624.483 212.996 628.283 212.193C632.142 211.39 635.037 210.309 636.967 208.95C638.897 207.529 640.223 206.016 640.947 204.41H664.466Z" fill="black"/>
<path d="M760 169.853L723.364 214.046V229.147H700.749V214.046L664.113 169.853H690.799L720.56 208.301H703.825L733.315 169.853H760Z" fill="black"/>
<path d="M425.348 88.7129H336.654V309.732H425.348V88.7129Z" fill="url(#paint0_linear_337_59)"/>
<path d="M336.653 88.7129H292V309.732H336.653V88.7129Z" fill="url(#paint1_linear_337_59)"/>
<path d="M425.347 88.7129H470V309.732H425.347V88.7129Z" fill="url(#paint2_linear_337_59)"/>
<path d="M379.165 396.603L292 309.73H336.959L379.165 396.603Z" fill="url(#paint3_linear_337_59)"/>
<path d="M379.058 1.9834L292 88.7129H336.995L379.058 1.9834Z" fill="url(#paint4_linear_337_59)"/>
<path d="M382.648 396.79L470 309.73H424.883L382.648 396.79Z" fill="url(#paint5_linear_337_59)"/>
<path d="M382.318 1.84424L470 88.5739L424.883 88.7129L382.318 1.84424Z" fill="url(#paint6_linear_337_59)"/>
<path d="M379.166 396.603L336.654 309.73H425.349L382.836 396.603C381.823 397.62 380.18 397.62 379.166 396.603Z" fill="url(#paint7_linear_337_59)"/>
<path d="M379.166 396.603L336.654 309.73H425.349L382.836 396.603C381.823 397.62 380.18 397.62 379.166 396.603Z" fill="url(#paint8_linear_337_59)"/>
<path d="M378.901 2.14273L336.654 88.7177H425.347L382.618 2.14273C381.636 1.01037 379.883 1.01037 378.901 2.14273Z" fill="url(#paint9_linear_337_59)"/>
<path d="M108.283 169.509L66.0534 214.187L23.9788 169.51L23.8308 169.353H23.6148H1H0.5V169.853V229.147V229.647H1H23.6148H24.1148V229.147V200.147L52.2006 229.493L52.3483 229.647H52.5618H79.6997H79.914L80.0617 229.492L108.147 200V229.147V229.647H108.647H131.262H131.762V229.147V169.853V169.353H131.262H108.647H108.431L108.283 169.509ZM235.797 211.544V211.044H235.297H167.048V204.632H222.633H223.133V204.132V194.868V194.368H222.633H167.048V187.956H235.116H235.616V187.456V169.853V169.353H235.116H143.933H143.433V169.853V229.147V229.647H143.933H235.297H235.797V229.147V211.544ZM243.406 169.353H242.906V169.853V187.456V187.956H243.406H278.638V229.147V229.647H279.138H301.753H302.253V229.147V187.956H337.484H337.984V187.456V169.853V169.353H337.484H243.406ZM380.773 187.702L392.191 205.763H369.448L380.773 187.702ZM354.618 229.413L360.106 220.66H401.609L407.143 229.414L407.29 229.647H407.565H432.442H433.371L432.859 228.871L393.69 169.577L393.542 169.353H393.273H368.125H367.855L367.707 169.579L328.9 228.873L328.393 229.647H329.318H354.194H354.471L354.618 229.413ZM521.511 169.853V205.022L462.566 169.425L462.447 169.353H462.307H439.693H439.193V169.853V229.147V229.647H439.693H462.307H462.807V229.147V194.62L521.756 229.577L521.873 229.647H522.011H544.625H545.125V229.147V169.853V169.353H544.625H522.011H521.511V169.853ZM664.966 204.436L664.993 203.91H664.466H640.947H640.624L640.491 204.205C639.814 205.708 638.557 207.158 636.675 208.544C634.826 209.844 632.01 210.907 628.181 211.703L628.179 211.703C624.429 212.496 619.283 212.897 612.724 212.897C605.02 212.897 598.784 212.434 594.002 211.516C589.215 210.597 585.79 209.169 583.656 207.279C581.538 205.403 580.477 202.979 580.477 199.963C580.477 196.623 581.549 193.982 583.667 191.989C585.799 189.982 589.22 188.495 594.002 187.576L594.008 187.575C598.787 186.596 605.021 186.103 612.724 186.103C619.281 186.103 624.456 186.535 628.264 187.388C632.089 188.245 634.9 189.427 636.745 190.904L636.753 190.91C638.619 192.344 639.882 193.999 640.568 195.873L640.688 196.201H641.037H664.557H665.083L665.056 195.676C664.749 189.635 662.625 184.488 658.681 180.259C654.739 176.033 648.948 172.877 641.355 170.762C633.757 168.583 624.208 167.5 612.724 167.5C603.96 167.5 596.095 168.026 589.129 169.081C582.156 170.136 576.192 171.909 571.249 174.41C566.293 176.854 562.481 180.187 559.834 184.411C557.179 188.586 555.867 193.78 555.867 199.963C555.867 206.148 557.179 211.313 559.837 215.429C562.487 219.531 566.301 222.769 571.258 225.151L571.262 225.153C576.204 227.465 582.166 229.082 589.137 230.013C596.1 231.005 603.963 231.5 612.724 231.5C624.206 231.5 633.72 230.51 641.255 228.519C648.846 226.528 654.639 223.53 658.583 219.49C662.533 215.445 664.658 210.417 664.966 204.436ZM760.385 170.172L761.064 169.353H760H733.315H733.068L732.918 169.549L712.152 196.623L691.194 169.547L691.044 169.353H690.799H664.113H663.049L663.728 170.172L700.249 214.226V229.147V229.647H700.749H723.364H723.864V229.147V214.226L760.385 170.172Z" stroke="black"/>
<defs>
<linearGradient id="paint0_linear_337_59" x1="350.626" y1="321.032" x2="413.327" y2="78.7675" gradientUnits="userSpaceOnUse">
<stop stop-color="#5FC3F7"/>
<stop offset="0.355939" stop-color="#816CEA"/>
<stop offset="0.646001" stop-color="#9867EB"/>
<stop offset="1" stop-color="#C970F6"/>
</linearGradient>
<linearGradient id="paint1_linear_337_59" x1="292" y1="72.254" x2="344.924" y2="345.35" gradientUnits="userSpaceOnUse">
<stop stop-color="#FEF9FE"/>
<stop offset="0.479037" stop-color="#EE8AF5"/>
<stop offset="1" stop-color="#4C4AE5"/>
</linearGradient>
<linearGradient id="paint2_linear_337_59" x1="425.044" y1="47.2539" x2="470.324" y2="343.238" gradientUnits="userSpaceOnUse">
<stop stop-color="#313EC0"/>
<stop offset="0.508777" stop-color="#C770F6"/>
<stop offset="1" stop-color="#FAF5FE"/>
</linearGradient>
<linearGradient id="paint3_linear_337_59" x1="317.819" y1="310.03" x2="379.174" y2="396.402" gradientUnits="userSpaceOnUse">
<stop stop-color="#80E5FC"/>
<stop offset="0.520833" stop-color="#EE8AF4"/>
<stop offset="1" stop-color="#F4E8F7"/>
</linearGradient>
<linearGradient id="paint4_linear_337_59" x1="317.819" y1="88.4119" x2="379.174" y2="2.04052" gradientUnits="userSpaceOnUse">
<stop stop-color="#80E5FC"/>
<stop offset="0.520833" stop-color="#EE8AF4"/>
<stop offset="1" stop-color="#F4E8F7"/>
</linearGradient>
<linearGradient id="paint5_linear_337_59" x1="381" y1="398.152" x2="447.819" y2="310.724" gradientUnits="userSpaceOnUse">
<stop stop-color="#59B7F8"/>
<stop offset="0.31597" stop-color="#4B45E4"/>
<stop offset="0.703125" stop-color="#BA76EE"/>
<stop offset="0.942708" stop-color="#E5C9FB"/>
</linearGradient>
<linearGradient id="paint6_linear_337_59" x1="381" y1="0.912776" x2="447.224" y2="88.1772" gradientUnits="userSpaceOnUse">
<stop stop-color="#59B7F8"/>
<stop offset="0.31597" stop-color="#4B45E4"/>
<stop offset="0.703125" stop-color="#BA76EE"/>
<stop offset="0.942708" stop-color="#E5C9FB"/>
</linearGradient>
<linearGradient id="paint7_linear_337_59" x1="381.002" y1="309.73" x2="381.002" y2="398.444" gradientUnits="userSpaceOnUse">
<stop stop-color="#9D5CED"/>
<stop offset="1" stop-color="#BA81F4"/>
</linearGradient>
<linearGradient id="paint8_linear_337_59" x1="380.786" y1="395.401" x2="379.851" y2="295.561" gradientUnits="userSpaceOnUse">
<stop stop-color="#80E5FC"/>
<stop offset="0.515995" stop-color="#AD70ED"/>
<stop offset="1" stop-color="#4B48E5"/>
</linearGradient>
<linearGradient id="paint9_linear_337_59" x1="380.698" y1="3.04876" x2="379.762" y2="103.039" gradientUnits="userSpaceOnUse">
<stop stop-color="#80E5FC"/>
<stop offset="0.515995" stop-color="#AD70ED"/>
<stop offset="1" stop-color="#4B48E5"/>
</linearGradient>
</defs>
</svg>
