<svg width="65" height="30" viewBox="0 0 65 30" fill="none" xmlns="http://www.w3.org/2000/svg">
<g clip-path="url(#clip0_198_29164)">
<path fill-rule="evenodd" clip-rule="evenodd" d="M6.66375 0.481539C6.06287 0.173487 5.38387 0 4.66503 0C2.20936 0 0.218625 2.02462 0.218625 4.52212C0.218625 5.08797 0.320814 5.62955 0.507443 6.1288C0.183368 6.75629 0 7.47072 0 8.2287C0 10.5082 1.65837 12.3938 3.815 12.7056C4.16668 14.8457 5.99624 16.4768 8.20038 16.4768C10.4099 16.4768 12.243 14.8377 12.5883 12.6899C14.6958 12.3349 16.3029 10.4727 16.3029 8.2287C16.3029 7.56831 16.1637 6.94099 15.9135 6.37541C16.1637 5.80984 16.3029 5.18251 16.3029 4.52212C16.3029 2.02462 14.3122 0 11.8565 0C11.0982 0 10.3842 0.193064 9.75948 0.533499C11.1442 1.16034 12.1096 2.57198 12.1096 4.21296C12.1096 5.01908 11.8766 5.76985 11.4754 6.39944C11.8766 7.02902 12.1096 7.7798 12.1096 8.58592C12.1096 10.8091 10.3376 12.6114 8.15156 12.6114C5.96557 12.6114 4.19349 10.8091 4.19349 8.58592C4.19349 7.7798 4.42648 7.02902 4.82769 6.39944C4.42648 5.76985 4.19349 5.01908 4.19349 4.21296C4.19349 2.52494 5.21507 1.0796 6.66375 0.481539ZM39.3587 0.48154C38.7578 0.173488 38.0788 0 37.36 0C34.9043 0 32.9136 2.02462 32.9136 4.52212C32.9136 5.08797 33.0158 5.62955 33.2024 6.1288C32.8783 6.75629 32.695 7.47072 32.695 8.2287C32.695 10.5082 34.3533 12.3938 36.51 12.7056C36.8616 14.8457 38.6912 16.4768 40.8953 16.4768C43.1049 16.4768 44.938 14.8377 45.2833 12.6899C47.0074 12.3995 48.3965 11.1004 48.8449 9.40876C48.9307 9.73808 49.052 10.0527 49.2046 10.348C49.0179 10.8472 48.9157 11.3888 48.9157 11.9547C48.9157 14.4522 50.9065 16.4768 53.3621 16.4768C54.081 16.4768 54.76 16.3033 55.3609 15.9953C53.9688 15.4206 52.9712 14.0636 52.8953 12.4607C53.6606 12.4949 54.5344 12.2382 55.3218 11.6866C56.1661 11.0952 56.7343 10.2887 56.9454 9.49695C57.1566 10.2887 57.7248 11.0952 58.569 11.6866C59.2908 12.1922 60.0851 12.45 60.802 12.4632C60.7274 14.0185 59.7849 15.342 58.4566 15.9433C59.0813 16.2837 59.7953 16.4768 60.5536 16.4768C63.0093 16.4768 65 14.4522 65 11.9547C65 11.2943 64.8608 10.667 64.6106 10.1014C64.8608 9.53581 65 8.90849 65 8.2481C65 6.00411 63.3929 4.14188 61.2855 3.78694C60.9401 1.63909 59.107 0 56.8975 0C54.6934 0 52.8638 1.6311 52.5121 3.77122C50.7417 4.02718 49.3071 5.34367 48.85 7.06803C48.7877 6.8288 48.7066 6.59735 48.6085 6.37541C48.8587 5.80984 48.9978 5.18251 48.9978 4.52212C48.9978 2.02462 47.0071 0 44.5514 0C43.7931 0 43.0791 0.193065 42.4545 0.5335C43.8391 1.16034 44.8046 2.57198 44.8046 4.21296C44.8046 5.01908 44.5716 5.76985 44.1704 6.39944C44.5716 7.02902 44.8046 7.7798 44.8046 8.58592C44.8046 10.8091 43.0325 12.6114 40.8465 12.6114C38.6605 12.6114 36.8884 10.8091 36.8884 8.58592C36.8884 7.7798 37.1214 7.02902 37.5226 6.39944C37.1214 5.76985 36.8884 5.01908 36.8884 4.21296C36.8884 2.52494 37.91 1.0796 39.3587 0.48154ZM59.0102 7.86211C59.0102 7.86211 60.0756 8.48669 60.7599 8.51218C60.7907 8.30967 60.8068 8.10218 60.8068 7.89088C60.8068 5.66766 59.0346 3.86539 56.8487 3.86539C54.6627 3.86539 52.8906 5.66766 52.8906 7.89088C52.8906 8.08855 52.9046 8.28289 52.9317 8.47294L52.9354 8.47291C53.69 8.47291 54.875 7.79202 54.875 7.79202L56.9454 8.51299L59.0102 7.86211ZM25.0462 24.4307V24.9581H24.1542V28.4811H23.5423V24.9581H22.8993V24.4307H23.5423V23.8716C23.5423 23.6396 23.5959 23.4462 23.7031 23.2915C23.8103 23.1368 23.9494 23.0208 24.1205 22.9434C24.2917 22.8661 24.4723 22.8274 24.6624 22.8274C24.8128 22.8274 24.9355 22.8397 25.0306 22.8643C25.1257 22.8889 25.1966 22.9118 25.2432 22.9329L25.0669 23.4708C25.0494 23.4649 25.0281 23.4581 25.003 23.4505C24.9834 23.4446 24.9615 23.4382 24.9373 23.4313C24.8837 23.4154 24.8128 23.4075 24.7247 23.4075C24.5224 23.4075 24.3764 23.4594 24.2865 23.5631C24.1983 23.6668 24.1542 23.8189 24.1542 24.0193V24.4307H25.0462ZM27.0611 28.5655C26.7292 28.5655 26.4362 28.4802 26.1821 28.3097C25.928 28.1374 25.7292 27.8948 25.5858 27.5819C25.4423 27.2672 25.3705 26.8954 25.3705 26.4664C25.3705 26.041 25.4423 25.6718 25.5858 25.3589C25.7292 25.046 25.9289 24.8043 26.1847 24.6337C26.4405 24.4632 26.7361 24.3779 27.0714 24.3779C27.3307 24.3779 27.5355 24.4219 27.6859 24.5098C27.838 24.5959 27.9539 24.6944 28.0334 24.8051C28.1146 24.9141 28.1777 25.0038 28.2227 25.0741H28.2745V24.4307H28.8864V28.4811H28.2952V27.8588H28.2227C28.1777 27.9326 28.1137 28.0258 28.0308 28.1383C27.9478 28.249 27.8294 28.3484 27.6756 28.4363C27.5217 28.5224 27.3169 28.5655 27.0611 28.5655ZM27.144 28.0064C27.3895 28.0064 27.5969 27.9414 27.7663 27.8113C27.9357 27.6795 28.0645 27.4975 28.1526 27.2654C28.2408 27.0316 28.2849 26.7618 28.2849 26.4559C28.2849 26.1535 28.2417 25.8889 28.1552 25.6622C28.0688 25.4336 27.9409 25.2561 27.7715 25.1295C27.6021 25.0012 27.393 24.937 27.144 24.937C26.8848 24.937 26.6687 25.0047 26.4958 25.14C26.3247 25.2736 26.1959 25.4556 26.1095 25.6859C26.0248 25.9144 25.9825 26.1711 25.9825 26.4559C25.9825 26.7442 26.0257 27.0061 26.1121 27.2417C26.2003 27.4755 26.3299 27.6619 26.501 27.8008C26.6739 27.9379 26.8882 28.0064 27.144 28.0064ZM30.5007 24.4307H29.9096V28.4811H30.5215V25.9496C30.5215 25.7509 30.5629 25.576 30.6459 25.4248C30.7306 25.2719 30.8412 25.1523 30.9778 25.0662C31.1161 24.9801 31.2647 24.937 31.4238 24.937C31.6554 24.937 31.8447 25.0082 31.9916 25.1506C32.1385 25.2912 32.212 25.4767 32.212 25.707V28.4811H32.8343V25.8441C32.8343 25.5822 32.9112 25.3659 33.065 25.1954C33.2189 25.0231 33.4358 24.937 33.7158 24.937C33.9336 24.937 34.1229 25.0012 34.2837 25.1295C34.4444 25.2578 34.5248 25.4714 34.5248 25.7703V28.4811H35.1367V25.7703C35.1367 25.2939 35.0235 24.9431 34.797 24.7181C34.5706 24.4913 34.2793 24.3779 33.9232 24.3779C33.638 24.3779 33.3935 24.4404 33.1895 24.5652C32.9855 24.6882 32.8325 24.8544 32.7305 25.0636H32.6891C32.5905 24.8473 32.4531 24.6794 32.2768 24.5599C32.1022 24.4386 31.8836 24.3779 31.6208 24.3779C31.3615 24.3779 31.1394 24.4386 30.9545 24.5599C30.7695 24.6794 30.6355 24.8473 30.5526 25.0636H30.5007V24.4307ZM36.0729 24.4307H36.6849V28.4811H36.0729V24.4307ZM36.3841 23.7556C36.2648 23.7556 36.162 23.7143 36.0756 23.6317C35.9908 23.5491 35.9485 23.4497 35.9485 23.3337C35.9485 23.2177 35.9908 23.1183 36.0756 23.0357C36.162 22.9531 36.2648 22.9118 36.3841 22.9118C36.5034 22.9118 36.6053 22.9531 36.6901 23.0357C36.7765 23.1183 36.8197 23.2177 36.8197 23.3337C36.8197 23.4497 36.7765 23.5491 36.6901 23.6317C36.6053 23.7143 36.5034 23.7556 36.3841 23.7556ZM38.235 28.4811V23.0806H37.6231V28.4811H38.235ZM39.5673 30C39.4636 30 39.3711 29.9912 39.2899 29.9736C39.2086 29.9578 39.1525 29.942 39.1213 29.9262L39.2769 29.3777C39.4256 29.4163 39.5569 29.4304 39.671 29.4199C39.7851 29.4093 39.8863 29.3575 39.9744 29.2643C40.0643 29.1729 40.1464 29.0243 40.2207 28.8186L40.3348 28.5022L38.8621 24.4307H39.5258L40.6252 27.6584H40.6667L41.766 24.4307H42.4298L40.7393 29.0718C40.6632 29.281 40.569 29.4541 40.4566 29.5913C40.3443 29.7301 40.2138 29.833 40.0652 29.8998C39.9182 29.9666 39.7523 30 39.5673 30ZM28.5353 4.33588C28.5353 4.33588 27.0751 4.53175 26.5624 4.86577C25.957 4.50407 25.2518 4.29666 24.4988 4.29666C23.7349 4.29666 23.0199 4.51022 22.4086 4.88183C21.919 4.53805 20.412 4.3359 20.412 4.3359C20.412 4.3359 20.5276 5.92799 20.9793 6.34574C20.6231 6.96186 20.4188 7.67977 20.4188 8.44622C20.4188 9.20345 20.6182 9.91331 20.9666 10.5244C20.5816 11.0435 20.4799 12.443 20.4799 12.443C20.4799 12.443 21.7662 12.2705 22.3481 11.9731C22.9725 12.3678 23.7095 12.5958 24.4988 12.5958C25.2915 12.5958 26.0313 12.3659 26.6574 11.9681C27.2346 12.2685 28.5353 12.443 28.5353 12.443C28.5353 12.443 28.4319 11.0192 28.0386 10.5112C28.3823 9.90307 28.5789 9.19799 28.5789 8.44622C28.5789 7.66651 28.3675 6.93703 27.9997 6.31385C28.4251 5.85291 28.5353 4.33588 28.5353 4.33588ZM28.7573 12.7388C28.5367 14.9328 26.7144 16.6445 24.4989 16.6445C22.2835 16.6445 20.4611 14.9328 20.2406 12.7388C18.0368 12.5611 16.3029 10.686 16.3029 8.39898C16.3029 6.1083 18.0424 4.23081 20.2512 4.05827C20.5142 1.91029 22.3157 0.248055 24.4989 0.248055C26.6822 0.248055 28.4837 1.91029 28.7466 4.05827C30.9555 4.23081 32.695 6.1083 32.695 8.39898C32.695 10.686 30.961 12.5611 28.7573 12.7388Z" fill="black"/>
</g>
<defs>
<clipPath id="clip0_198_29164">
<rect width="65" height="30" fill="white"/>
</clipPath>
</defs>
</svg>
