<svg width="97" height="23" viewBox="0 0 97 23" fill="none" xmlns="http://www.w3.org/2000/svg">
<g clip-path="url(#clip0_254_9830)">
<path d="M33.9085 17.6662C33.8532 17.6693 33.7978 17.6608 33.746 17.6413C33.6941 17.6217 33.6469 17.5915 33.6074 17.5526C33.5693 17.5138 33.5395 17.4675 33.52 17.4167C33.5004 17.3659 33.4915 17.3116 33.4938 17.2573V8.49242H30.5173C30.4656 8.49337 30.4143 8.48379 30.3664 8.46426C30.3186 8.44473 30.2752 8.41565 30.239 8.37881C30.2014 8.3419 30.1719 8.2976 30.1524 8.24871C30.1328 8.19983 30.1236 8.14741 30.1254 8.09479V6.62925C30.1231 6.57486 30.132 6.52058 30.1515 6.46977C30.171 6.41896 30.2008 6.3727 30.239 6.33387C30.2759 6.29631 30.3202 6.26683 30.3691 6.24727C30.4179 6.22772 30.4704 6.21852 30.523 6.22026H39.089C39.1434 6.21797 39.1977 6.22687 39.2485 6.24641C39.2993 6.26595 39.3456 6.29572 39.3844 6.33387C39.4225 6.3727 39.4523 6.41896 39.4718 6.46977C39.4914 6.52058 39.5003 6.57486 39.498 6.62925V8.10047C39.499 8.15215 39.4894 8.20348 39.4698 8.25133C39.4503 8.29919 39.4212 8.34256 39.3844 8.37881C39.3456 8.41696 39.2993 8.44672 39.2485 8.46626C39.1977 8.48581 39.1434 8.49471 39.089 8.49242H36.1238V17.2573C36.1261 17.3116 36.1172 17.3659 36.0977 17.4167C36.0782 17.4675 36.0484 17.5138 36.0102 17.5526C35.9714 17.5908 35.9251 17.6206 35.8743 17.6401C35.8235 17.6596 35.7692 17.6685 35.7149 17.6662H33.8971H33.9085ZM43.213 17.831C41.9633 17.831 40.9635 17.4845 40.2251 16.7858C39.4866 16.0871 39.106 15.0703 39.0606 13.7411V13.0424C39.0796 12.2885 39.2741 11.5494 39.6286 10.8839C39.9524 10.2866 40.4495 9.80139 41.0544 9.49216C41.716 9.1518 42.4521 8.98193 43.1959 8.99797C44.1162 8.99797 44.8773 9.1911 45.4908 9.57169C46.0986 9.92943 46.5822 10.4646 46.8768 11.1054C47.1949 11.753 47.354 12.4914 47.354 13.3321V13.7127C47.3534 13.7649 47.3414 13.8164 47.3189 13.8635C47.2963 13.9106 47.2637 13.9522 47.2233 13.9854C47.1864 14.0229 47.1421 14.0524 47.0932 14.0719C47.0443 14.0915 46.9919 14.1007 46.9393 14.099H41.5997V14.2353C41.6054 14.5818 41.6736 14.9056 41.7929 15.201C41.9235 15.485 42.1053 15.7122 42.3325 15.8826C42.5711 16.0587 42.8551 16.1439 43.1846 16.1439C43.4572 16.1439 43.6788 16.1098 43.8549 16.0303C44.013 15.965 44.1575 15.8705 44.2809 15.752C44.3945 15.644 44.4854 15.5531 44.5422 15.4736C44.6387 15.3657 44.7126 15.3032 44.7694 15.2805C44.8319 15.2464 44.9341 15.2294 45.0648 15.2294H46.7689C46.8163 15.2277 46.8635 15.2359 46.9075 15.2535C46.9515 15.2711 46.9914 15.2977 47.0245 15.3316C47.104 15.3884 47.1381 15.4679 47.1211 15.5759C47.1154 15.7463 47.0188 15.9678 46.8484 16.2291C46.678 16.479 46.4394 16.729 46.11 16.9789C45.7805 17.2232 45.3715 17.422 44.883 17.5867C44.3435 17.7591 43.7793 17.8416 43.213 17.831V17.831ZM41.5941 12.6164H44.8035V12.5823C44.8035 12.1847 44.7353 11.8495 44.6047 11.5655C44.4966 11.2896 44.3087 11.0523 44.065 10.8839C43.8265 10.7134 43.5368 10.6339 43.2016 10.6339C42.8665 10.6339 42.5768 10.7191 42.3325 10.8782C42.0939 11.0486 41.9065 11.2758 41.7758 11.5655C41.6565 11.8495 41.5941 12.1903 41.5941 12.5823V12.6164V12.6164ZM49.3762 17.6719C49.3255 17.6721 49.2752 17.6622 49.2284 17.6427C49.1816 17.6231 49.1391 17.5945 49.1035 17.5583C49.0647 17.5188 49.0345 17.4716 49.0149 17.4198C48.9954 17.3679 48.9868 17.3126 48.9899 17.2573V9.57169C48.9876 9.5173 48.9965 9.46302 49.0161 9.41221C49.0356 9.3614 49.0654 9.31515 49.1035 9.27631C49.1398 9.23947 49.1832 9.21039 49.231 9.19086C49.2789 9.17133 49.3302 9.16175 49.3819 9.1627H50.9837C51.0381 9.16041 51.0924 9.16931 51.1432 9.18885C51.194 9.20839 51.2403 9.23816 51.2791 9.27631C51.3173 9.31515 51.347 9.3614 51.3666 9.41221C51.3861 9.46302 51.395 9.5173 51.3927 9.57169V10.2079C51.7238 9.81039 52.142 9.49449 52.6148 9.28466C53.0876 9.07484 53.6025 8.97674 54.1193 8.99797C54.7669 8.99797 55.3292 9.14566 55.8064 9.44104C56.3006 9.72506 56.6812 10.1454 56.9538 10.7021C57.2379 11.2474 57.3799 11.912 57.3799 12.6902V17.2573C57.3815 17.3131 57.3706 17.3686 57.348 17.4197C57.3254 17.4708 57.2916 17.5163 57.2492 17.5526C57.2123 17.5902 57.168 17.6197 57.1191 17.6392C57.0702 17.6588 57.0178 17.668 56.9652 17.6662H55.2327C55.1792 17.6678 55.126 17.6585 55.0763 17.639C55.0265 17.6194 54.9811 17.5901 54.943 17.5526C54.9048 17.5138 54.8751 17.4675 54.8555 17.4167C54.836 17.3659 54.8271 17.3116 54.8294 17.2573V12.7925C54.8294 12.2188 54.6817 11.77 54.3977 11.4519C54.1307 11.1281 53.7274 10.9634 53.1934 10.9634C52.6822 10.9634 52.2675 11.1281 51.9665 11.4519C51.6419 11.8204 51.4765 12.3024 51.5063 12.7925V17.2573C51.5086 17.3116 51.4997 17.3659 51.4802 17.4167C51.4607 17.4675 51.4309 17.5138 51.3927 17.5526C51.3558 17.5902 51.3115 17.6197 51.2626 17.6392C51.2138 17.6588 51.1613 17.668 51.1087 17.6662H49.3819L49.3762 17.6719ZM64.0657 17.831C63.0432 17.831 62.1684 17.6606 61.447 17.3197C60.7629 16.9919 60.1902 16.4705 59.7997 15.8201C59.3845 15.0799 59.1582 14.2488 59.1408 13.4003C59.1187 12.4291 59.1187 11.4575 59.1408 10.4862C59.1567 9.64902 59.3812 8.829 59.794 8.10047C60.1942 7.43799 60.7811 6.90841 61.4811 6.57812C62.1968 6.23162 63.0603 6.05553 64.0657 6.05553C64.7928 6.05553 65.4574 6.14641 66.0538 6.33955C66.6182 6.50405 67.1463 6.77388 67.6102 7.1348C68.0329 7.46646 68.3797 7.88484 68.627 8.36177C68.8656 8.83324 68.9963 9.35584 69.019 9.93523C69.0195 9.98184 69.0095 10.028 68.9899 10.0702C68.9702 10.1125 68.9413 10.1498 68.9054 10.1795C68.8735 10.2115 68.8353 10.2366 68.7933 10.2532C68.7513 10.2698 68.7063 10.2776 68.6611 10.2761H66.7923C66.6817 10.2823 66.5726 10.248 66.4855 10.1795C66.3947 10.0893 66.3316 9.97495 66.3038 9.85003C66.139 9.20815 65.8664 8.77076 65.4858 8.5265C65.056 8.27487 64.5634 8.15075 64.0657 8.16863C63.384 8.16863 62.8558 8.35041 62.4581 8.71963C62.0662 9.09454 61.856 9.70802 61.8219 10.5714C61.7891 11.4857 61.7891 12.4008 61.8219 13.3151C61.856 14.1785 62.0662 14.792 62.4581 15.1669C62.9017 15.5536 63.478 15.7532 64.0657 15.7236C64.6337 15.7236 65.1052 15.6043 65.4858 15.36C65.8834 15.1101 66.1504 14.667 66.3038 14.0365C66.3492 13.8717 66.406 13.7638 66.4855 13.7127C66.572 13.6426 66.681 13.6063 66.7923 13.6104H68.6611C68.7577 13.6104 68.8372 13.6445 68.9054 13.7127C68.9792 13.7752 69.019 13.8604 69.019 13.957C69.003 14.5024 68.8673 15.0376 68.6214 15.5247C68.3756 16.0011 68.0309 16.4195 67.6102 16.7517C67.1484 17.114 66.6223 17.3858 66.0595 17.5526C65.4574 17.7401 64.7928 17.8367 64.0657 17.8367V17.831ZM71.0866 17.6662C71.0323 17.6685 70.978 17.6596 70.9272 17.6401C70.8764 17.6206 70.8301 17.5908 70.7913 17.5526C70.7531 17.5138 70.7234 17.4675 70.7038 17.4167C70.6843 17.3659 70.6754 17.3116 70.6777 17.2573V6.46452C70.6754 6.41013 70.6843 6.35585 70.7038 6.30504C70.7234 6.25423 70.7531 6.20797 70.7913 6.16914C70.8301 6.13099 70.8764 6.10122 70.9272 6.08168C70.978 6.06214 71.0323 6.05324 71.0866 6.05553H72.8476C72.9612 6.05553 73.0521 6.09529 73.1316 6.16914C73.1697 6.20797 73.1995 6.25423 73.219 6.30504C73.2386 6.35585 73.2475 6.41013 73.2452 6.46452V10.1454C73.5422 9.79419 73.9099 9.50964 74.3245 9.31039C74.8054 9.0914 75.3299 8.98457 75.8582 8.99797C76.4562 8.98541 77.0461 9.13877 77.5623 9.44104C78.0622 9.72506 78.4541 10.1454 78.7381 10.7021C79.0222 11.2474 79.1642 11.912 79.1642 12.6902V17.2573C79.1665 17.3116 79.1576 17.3659 79.138 17.4167C79.1185 17.4675 79.0887 17.5138 79.0506 17.5526C79.0117 17.5908 78.9655 17.6206 78.9146 17.6401C78.8638 17.6596 78.8096 17.6685 78.7552 17.6662H76.9715C76.9198 17.6675 76.8684 17.6581 76.8205 17.6386C76.7726 17.619 76.7292 17.5898 76.6932 17.5526C76.655 17.5138 76.6253 17.4675 76.6057 17.4167C76.5862 17.3659 76.5773 17.3116 76.5796 17.2573V12.7925C76.5796 12.2188 76.4376 11.77 76.1536 11.4519C76.0009 11.2856 75.8131 11.1554 75.6038 11.0709C75.3945 10.9864 75.1689 10.9496 74.9436 10.9634C74.4324 10.9634 74.0177 11.1281 73.6996 11.4519C73.3788 11.8222 73.2157 12.3034 73.2452 12.7925V17.2573C73.2475 17.3116 73.2386 17.3659 73.219 17.4167C73.1995 17.4675 73.1697 17.5138 73.1316 17.5526C73.0949 17.5905 73.0506 17.6202 73.0017 17.6397C72.9528 17.6593 72.9002 17.6683 72.8476 17.6662H71.0866ZM83.6233 17.831C83.0867 17.8411 82.5548 17.7304 82.0668 17.5072C81.6124 17.28 81.2489 16.9732 80.9762 16.587C80.708 16.2171 80.5647 15.7714 80.5672 15.3146C80.5672 14.5363 80.874 13.9285 81.4988 13.4798C82.2458 12.99 83.0949 12.6772 83.9811 12.5653L86.1283 12.2528V11.9631C86.1505 11.6108 86.0457 11.2622 85.8329 10.9804C85.6341 10.7532 85.2933 10.6396 84.7991 10.6396C84.4412 10.6396 84.1515 10.7078 83.9357 10.8498C83.7142 10.9918 83.5494 11.1736 83.4245 11.4065C83.3871 11.4724 83.3325 11.5269 83.2664 11.5639C83.2003 11.601 83.1253 11.6192 83.0495 11.6166H81.4988C81.4474 11.6206 81.3957 11.6141 81.3469 11.5975C81.2981 11.5809 81.2531 11.5546 81.2148 11.5201C81.1836 11.4847 81.1604 11.4431 81.1467 11.398C81.1329 11.353 81.1291 11.3055 81.1353 11.2588C81.1353 11.0713 81.2091 10.8555 81.3511 10.5998C81.4931 10.3499 81.709 10.1056 82.0044 9.86139C82.2997 9.61713 82.6746 9.40696 83.1348 9.24791C83.5892 9.0775 84.1515 8.99797 84.8161 8.99797C85.5035 8.99797 86.0942 9.08318 86.5828 9.24223C87.0713 9.41264 87.4632 9.63985 87.7586 9.92955C88.0507 10.2211 88.2739 10.5744 88.4118 10.9634C88.5538 11.344 88.6277 11.7586 88.6277 12.2074V17.2629C88.6292 17.3164 88.6199 17.3696 88.6004 17.4194C88.5809 17.4691 88.5515 17.5145 88.5141 17.5526C88.4752 17.5908 88.429 17.6206 88.3782 17.6401C88.3274 17.6596 88.2731 17.6685 88.2187 17.6662H86.6168C86.5642 17.6683 86.5116 17.6593 86.4627 17.6397C86.4138 17.6202 86.3695 17.5905 86.3328 17.5526C86.2947 17.5138 86.2649 17.4675 86.2454 17.4167C86.2258 17.3659 86.2169 17.3116 86.2192 17.2573V16.6551C86.0829 16.8596 85.8897 17.0528 85.6512 17.2402C85.3858 17.4273 85.0925 17.5711 84.7821 17.6662C84.4077 17.7854 84.016 17.8411 83.6233 17.831V17.831ZM84.2765 16.1269C84.6401 16.1269 84.9582 16.053 85.2422 15.8996C85.5262 15.7463 85.7534 15.5134 85.9125 15.201C86.0772 14.8829 86.1567 14.4852 86.1567 14.0081V13.7241L84.6401 13.974C84.0493 14.0706 83.6176 14.2182 83.3449 14.4114C83.0723 14.6102 82.9359 14.8488 82.9359 15.1328C82.9359 15.343 82.9927 15.5191 83.1177 15.6724C83.2484 15.8258 83.4188 15.9394 83.6233 16.0133C83.8325 16.0896 84.0537 16.1281 84.2765 16.1269ZM94.6319 17.6662C93.9559 17.6662 93.3822 17.5583 92.8993 17.3425C92.4285 17.122 92.0432 16.7527 91.803 16.2916C91.547 15.7409 91.4244 15.1376 91.4452 14.5307V11.094H90.1671C90.1127 11.0963 90.0584 11.0874 90.0076 11.0679C89.9568 11.0483 89.9105 11.0186 89.8717 10.9804C89.8335 10.9416 89.8038 10.8953 89.7842 10.8445C89.7647 10.7937 89.7558 10.7394 89.7581 10.685V9.57169C89.7558 9.5173 89.7647 9.46302 89.7842 9.41221C89.8038 9.3614 89.8335 9.31515 89.8717 9.27631C89.9105 9.23816 89.9568 9.20839 90.0076 9.18885C90.0584 9.16931 90.1127 9.16041 90.1671 9.1627H91.4452V6.46452C91.4429 6.41013 91.4518 6.35585 91.4713 6.30504C91.4909 6.25423 91.5206 6.20797 91.5588 6.16914C91.6396 6.09573 91.745 6.0552 91.8542 6.05553H93.456C93.5104 6.05324 93.5647 6.06214 93.6155 6.08168C93.6663 6.10122 93.7126 6.13099 93.7514 6.16914C93.7895 6.20797 93.8193 6.25423 93.8389 6.30504C93.8584 6.35585 93.8673 6.41013 93.865 6.46452V9.1627H95.91C96.014 9.16269 96.114 9.20347 96.1883 9.27631C96.2264 9.31515 96.2562 9.3614 96.2757 9.41221C96.2953 9.46302 96.3042 9.5173 96.3019 9.57169V10.685C96.3042 10.7394 96.2953 10.7937 96.2757 10.8445C96.2562 10.8953 96.2264 10.9416 96.1883 10.9804C96.1514 11.018 96.1071 11.0475 96.0582 11.067C96.0093 11.0866 95.9569 11.0958 95.9043 11.094H93.8593V14.3319C93.8593 14.7465 93.9332 15.0703 94.0752 15.3146C94.2286 15.5418 94.4898 15.6554 94.8591 15.6554H96.052C96.1656 15.6554 96.2565 15.6951 96.336 15.769C96.3735 15.8059 96.403 15.8502 96.4226 15.8991C96.4421 15.948 96.4513 16.0004 96.4496 16.053V17.2573C96.4519 17.3116 96.443 17.3659 96.4234 17.4167C96.4039 17.4675 96.3741 17.5138 96.336 17.5526C96.2991 17.5902 96.2548 17.6197 96.2059 17.6392C96.157 17.6588 96.1046 17.668 96.052 17.6662H94.6319V17.6662Z" fill="#282F3D"/>
<path d="M5.29688 3.49365H18.1118V16.3143H5.29688V3.49365Z" fill="white"/>
<path fill-rule="evenodd" clip-rule="evenodd" d="M20.015 1.04557C14.7606 -0.348525 9.23359 -0.348525 3.97924 1.04557C3.11478 1.27542 2.33221 1.74336 1.72062 2.39612C1.10903 3.04888 0.693002 3.86024 0.519886 4.73783C-0.100379 7.9039 -0.100379 11.1603 0.519886 14.3263C0.693451 15.2046 1.11033 16.0165 1.72298 16.6693C2.33563 17.3221 3.11941 17.7897 3.98492 18.0186C7.16133 18.8623 10.4509 19.1997 13.7325 19.0183C14.1574 18.9938 14.5758 19.1319 14.9026 19.4046L18.771 22.6651C18.8056 22.6961 18.8484 22.7163 18.8943 22.7232C18.9401 22.7302 18.9871 22.7236 19.0293 22.7043C19.0715 22.685 19.1071 22.6539 19.1319 22.6146C19.1566 22.5754 19.1694 22.5298 19.1686 22.4834V18.7002C19.1686 18.4276 19.3504 18.189 19.6174 18.1208L20.015 18.0186C20.8805 17.7897 21.6643 17.3221 22.2769 16.6693C22.8896 16.0165 23.3065 15.2046 23.48 14.3263C24.1003 11.1603 24.1003 7.9039 23.48 4.73783C23.3065 3.85953 22.8896 3.04768 22.2769 2.39486C21.6643 1.74203 20.8805 1.2745 20.015 1.04557V1.04557ZM16.976 4.22091C17.3338 4.22091 17.6235 4.51061 17.6235 4.86848V7.14063C17.6235 7.4985 17.3338 7.7882 16.976 7.7882H14.6981C14.3346 7.7882 14.0449 8.08358 14.0449 8.44144V14.6103C14.0449 14.9682 13.7552 15.2579 13.3973 15.2579H10.79C10.6183 15.2579 10.4536 15.1897 10.3321 15.0682C10.2107 14.9468 10.1425 14.7821 10.1425 14.6103V8.44144C10.1425 8.08358 9.84709 7.7882 9.48922 7.7882H7.21707C7.13155 7.78895 7.04673 7.77275 6.96751 7.74054C6.88829 7.70834 6.81623 7.66076 6.75549 7.60055C6.69476 7.54034 6.64655 7.4687 6.61365 7.38976C6.58075 7.31083 6.56382 7.22615 6.56382 7.14063V4.86848C6.56382 4.51061 6.84784 4.22091 7.21139 4.22091H16.9817H16.976Z" fill="#FC3234"/>
</g>
<defs>
<clipPath id="clip0_254_9830">
<rect width="96.3955" height="22.7259" fill="white" transform="translate(0.0546875)"/>
</clipPath>
</defs>
</svg>
