<svg width="24" height="24" viewBox="0 0 24 24" fill="none" xmlns="http://www.w3.org/2000/svg">
<path d="M16.5893 16.3533C16.7923 15.7303 17.7437 9.52098 17.8613 8.29746C17.8968 7.9269 17.7797 7.68066 17.5502 7.57074C17.2728 7.4373 16.8619 7.50402 16.3853 7.67586C15.7315 7.91154 7.37376 11.4602 6.89088 11.6656C6.43296 11.86 6 12.0722 6 12.3794C6 12.5954 6.12816 12.7168 6.48144 12.8431C6.84912 12.9741 7.77504 13.2549 8.32176 13.4056C8.84832 13.5511 9.44784 13.4248 9.78384 13.216C10.14 12.9947 14.2502 10.2443 14.5454 10.0034C14.8402 9.76242 15.0754 10.0711 14.8344 10.3125C14.5934 10.5535 11.772 13.2919 11.4 13.6711C10.9483 14.1314 11.269 14.6085 11.5718 14.7995C11.9179 15.0175 14.4067 16.6869 14.7816 16.9547C15.1565 17.2226 15.5366 17.344 15.8846 17.344C16.2326 17.344 16.416 16.8856 16.5893 16.3533Z" fill="white"/>
</svg>
