<svg width="24" height="24" viewBox="0 0 24 24" fill="none" xmlns="http://www.w3.org/2000/svg">
<path d="M5.7262 8.25H7.13704C7.48993 8.25 7.62891 8.40967 7.76258 8.83867C8.3935 11.0002 9.32935 12.65 9.80522 12.65C9.98166 12.65 10.0621 12.5625 10.0621 12.0785V10.0869C10.0086 9.05841 9.52744 8.97084 9.52744 8.60234C9.52744 8.42634 9.63926 8.25 9.85848 8.25H12.3449C12.6444 8.25 12.7355 8.42587 12.7355 8.80537V11.6596C12.7355 11.9841 12.9757 12.1 13.0666 12.1C13.243 12.1 13.4088 12.1115 13.7349 11.7595C14.3421 11.022 14.9027 10.0557 15.2515 9.40604C15.5052 8.93351 15.6903 8.25 16.2266 8.25H17.628C17.9435 8.25 18.0716 8.39253 18.0823 8.59053C18.0877 8.66203 18.0713 8.73898 18.0499 8.82148C17.9098 9.51595 16.7482 11.2966 16.2759 12.0113C16.1444 12.2103 15.9565 12.4118 15.9436 12.65C15.9382 12.749 15.9757 12.8475 16.0773 12.9905C16.227 13.2105 16.5478 13.618 16.8793 14.025C17.4728 14.762 17.9483 15.5375 18.0499 15.8565C18.0767 15.939 18.0823 16.016 18.0823 16.0875C18.077 16.3625 17.8895 16.5 17.5633 16.5H16.1629C15.6336 16.5 15.4628 15.961 14.5432 14.85C13.7412 13.8875 13.324 13.75 13.1209 13.75C12.8321 13.75 12.7355 13.8213 12.7355 14.2613V15.9006C12.7355 16.2636 12.6448 16.5 11.7466 16.5C10.2655 16.5 8.59221 15.4665 7.32502 13.6845C5.57127 11.215 5.25 9.07474 5.25 8.67324C5.25 8.45324 5.31984 8.25 5.7262 8.25Z" fill="white"/>
</svg>
